<?xml version="1.0" encoding="UTF-8"?><svg id="_レイヤー_2" xmlns="http://www.w3.org/2000/svg" viewBox="0 0 161.13 141.13"><defs><style>.cls-1{fill:#e9d7c5;}.cls-1,.cls-2,.cls-3,.cls-4,.cls-5{stroke:#3d291b;}.cls-1,.cls-2,.cls-3,.cls-4,.cls-5,.cls-6{stroke-miterlimit:10;}.cls-2,.cls-4,.cls-5{stroke-linecap:round;}.cls-2,.cls-5{stroke-width:1.95px;}.cls-2,.cls-6{fill:#3d291b;}.cls-3{fill:#8c7a68;}.cls-4{stroke-width:1.82px;}.cls-4,.cls-5{fill:none;}.cls-6{stroke:#8c7a68;}</style></defs><g id="_レイヤー_1-2"><path class="cls-1" d="m159.68,79.42c1.68,8.94-1.07,19.17-8.55,24.34-.33.21-.73.47-1.2.74-.04-.42-.07-.85-.08-1.26-.25-6.07.9-12.07,1.83-18.08.79-5.06,1.09-9.9,1-14.49h.29c1.99.21,3.52,1.51,4.65,3.17,1.13,1.65,1.69,3.62,2.07,5.58Z"/><path class="cls-3" d="m155.04,113.03c.57.57.46,1.56-.01,2.2-.48.64-1.16,1.1-1.36,1.21-2.98,1.53-6.7.89-9.6-.79-2.3-1.34-4.19-3.24-5.95-5.24-.47-.52-.93-1.05-1.37-1.57-8.46-9.81-17.18-20.09-20.43-32.63-1.97-7.6-1.8-15.61-3.44-23.29-1.64-7.67-5.74-15.56-13.04-18.46.59-2.83,1.97-7.26,5.45-11.48,2.01-2.43,5.49-6.65,11.13-7.54,3.65-.59,7.09-.38,9.81,1.6,9.23,6.72,13.81,12.34,17.39,18.96,4.9,9.07,8.78,20.78,9.06,34.68.09,4.59-.21,9.43-1,14.49-.93,6.01-2.08,12.01-1.83,18.08.02.41.05.83.08,1.26.29,3.22,1.28,6.63,4.14,7.97.35.16.71.29.98.56Z"/><path class="cls-1" d="m138.12,110.41h0c-12.52,18-33.64,29.81-57.57,29.81-26.61,0-49.73-14.61-61.44-36.07,8.93-16.46,13.07-35.34,22.06-51.85,2.69-4.94,5.9-9.75,10.37-13.16,8.53-6.51,20.09-6.93,30.82-7.07,4.46-.07,9.24-.03,12.93,2.47.02-.2.04-.4.07-.6l4.48.52c7.3,2.9,11.39,10.79,13.04,18.46,1.64,7.68,1.47,15.69,3.44,23.29,3.25,12.53,11.97,22.82,20.43,32.63.45.52.91,1.05,1.37,1.57Zm-26.57-30.98c0-2.16-1.75-3.91-3.91-3.91s-3.91,1.75-3.91,3.91,1.75,3.91,3.91,3.91,3.91-1.75,3.91-3.91Zm-61.81.08c0-2.34-1.9-4.23-4.23-4.23s-4.23,1.9-4.23,4.23,1.9,4.23,4.23,4.23,4.23-1.9,4.23-4.23Z"/><circle class="cls-1" cx="107.64" cy="79.43" r="3.91"/><path class="cls-3" d="m104.05,8.25c3.02,2.1,5.25,4.37,6.8,6.17-8.22,3.58-14.45,11.38-15.49,19.51-.03.2-.05.4-.07.6-3.69-2.5-8.46-2.53-12.93-2.47-10.73.14-22.29.56-30.82,7.07-4.47,3.41-7.67,8.22-10.37,13.16-8.99,16.51-13.13,35.39-22.06,51.85-.85,1.58-1.75,3.13-2.7,4.66-.83,1.34-1.76,2.71-3.13,3.51s-3.3.83-4.38-.32c-1.63-1.75-.34-4.53.67-6.7.22-.48.43-.97.62-1.47,2.35-6.14,2.06-13.09.91-19.6-1.04-5.88-1.63-10.12-1.9-13.69-.21-2.73-.22-5.06-.1-7.44,1.11-22,19.17-39.85,21.84-42.39C51.43,1.16,84.29-5.52,104.05,8.25Z"/><circle class="cls-6" cx="45.51" cy="79.51" r="4.23"/><path class="cls-1" d="m11.09,84.23c1.15,6.52,1.45,13.46-.91,19.6l-.17-.07C2.53,98.59-.23,88.36,1.45,79.42c.37-1.97.94-3.94,2.07-5.58,1.13-1.65,2.67-2.96,4.66-3.17l1.02-.14c.27,3.58.86,7.82,1.9,13.69Z"/><path class="cls-5" d="m95.35,33.94c-.03.2-.05.4-.07.6-3.69-2.5-8.46-2.53-12.93-2.47-10.73.14-22.29.56-30.82,7.07-4.47,3.41-7.67,8.22-10.37,13.16-8.99,16.51-13.13,35.39-22.06,51.85-.85,1.58-1.75,3.13-2.7,4.66-.83,1.34-1.76,2.71-3.13,3.51s-3.3.83-4.38-.32c-1.63-1.75-.34-4.53.67-6.7.22-.48.43-.97.62-1.47,2.35-6.14,2.06-13.09.91-19.6-1.04-5.88-1.63-10.12-1.9-13.69-.21-2.73-.22-5.06-.1-7.44,1.11-22,19.17-39.85,21.84-42.39C51.43,1.16,84.29-5.52,104.05,8.25c3.02,2.1,5.25,4.37,6.8,6.17-8.22,3.58-14.45,11.38-15.49,19.51Z"/><path class="cls-5" d="m149.92,104.5c.29,3.22,1.28,6.63,4.14,7.97.35.16.71.29.98.56.57.57.46,1.56-.01,2.2-.48.64-1.16,1.1-1.36,1.21-2.98,1.53-6.7.89-9.6-.79-2.3-1.34-4.19-3.24-5.95-5.24-.47-.52-.93-1.05-1.37-1.57-8.46-9.81-17.18-20.09-20.43-32.63-1.97-7.6-1.8-15.61-3.44-23.29-1.64-7.67-5.74-15.56-13.04-18.46.59-2.83,1.97-7.26,5.45-11.48,2.01-2.43,5.49-6.65,11.13-7.54,3.65-.59,7.09-.38,9.81,1.6,9.23,6.72,13.81,12.34,17.39,18.96,4.9,9.07,8.78,20.78,9.06,34.68.09,4.59-.21,9.43-1,14.49-.93,6.01-2.08,12.01-1.83,18.08.02.41.05.83.08,1.26Z"/><path class="cls-5" d="m8.18,70.67c-1.99.21-3.53,1.52-4.66,3.17-1.12,1.65-1.69,3.62-2.07,5.58-1.68,8.94,1.07,19.17,8.56,24.34"/><path class="cls-5" d="m152.96,70.67c1.99.21,3.52,1.52,4.65,3.17,1.13,1.65,1.69,3.62,2.07,5.58,1.68,8.94-1.07,19.17-8.55,24.34-.33.21-.73.47-1.2.74"/><circle class="cls-2" cx="107.64" cy="79.43" r="3.91"/><circle class="cls-5" cx="45.51" cy="79.51" r="4.23"/><path class="cls-5" d="m98.36,67.9c4.25-3.33,10.03-3.67,15.43-3.88"/><path class="cls-5" d="m35.72,66.58c3.3-2.53,7.58-3.58,11.75-3.48,4.16.09,8.23,1.25,12.1,2.76"/><path class="cls-5" d="m77.65,85.88c-1.48,1.45-3,2.97-3.75,4.9s-.54,4.4,1.07,5.71c1.19.98,2.85,1.11,4.38.98,1.22-.11,2.5-.4,3.44-1.19"/><path class="cls-4" d="m138.11,110.42c-12.52,17.99-33.64,29.81-57.57,29.81-26.61,0-49.73-14.61-61.44-36.07"/><path class="cls-4" d="m122.92,109.59c-11.73,8.82-26.42,14.07-42.37,14.07-13.39,0-25.9-3.71-36.52-10.12"/></g></svg>