<?xml version="1.0" encoding="UTF-8"?><svg id="_レイヤー_2" xmlns="http://www.w3.org/2000/svg" viewBox="0 0 1190.05 1462.68"><defs><style>.cls-1{stroke:#8c7a68;}.cls-1,.cls-2,.cls-3{fill:#3d291b;}.cls-1,.cls-2,.cls-4,.cls-5,.cls-6,.cls-7{stroke-miterlimit:10;}.cls-1,.cls-6,.cls-7{stroke-width:5.58px;}.cls-8{letter-spacing:0em;}.cls-2,.cls-4{stroke-width:10.91px;}.cls-2,.cls-4,.cls-5{stroke-linecap:round;}.cls-2,.cls-4,.cls-5,.cls-6,.cls-7{stroke:#3d291b;}.cls-9{letter-spacing:-.09em;}.cls-10{letter-spacing:.38em;}.cls-11{letter-spacing:.25em;}.cls-12{fill:#32231f;font-family:DNPShueiMGoStd-B-90ms-RKSJ-H, 'DNP ShueiMGoStd';font-size:145.14px;}.cls-4,.cls-5{fill:none;}.cls-13{fill:#373838;font-family:DNPShueiMGoStd-L-90ms-RKSJ-H, 'DNP ShueiMGoStd';font-size:83px;}.cls-5{stroke-width:10.15px;}.cls-14{letter-spacing:.42em;}.cls-6{fill:#8c7a68;}.cls-7{fill:#e9d7c5;}</style></defs><g id="_レイヤー_1-2"><path class="cls-7" d="m203.91,606.46c6.44,36.37,8.07,75.14-5.06,109.43l-.95-.36c-41.79-28.88-57.17-85.98-47.79-135.87,2.07-10.98,5.27-21.97,11.53-31.17,6.29-9.24,14.91-16.51,26-17.71l5.67-.76c1.49,19.97,4.8,43.64,10.58,76.45Z"/><path class="cls-4" d="m187.66,530.77c-11.09,1.2-19.71,8.47-26,17.71-6.26,9.2-9.46,20.18-11.53,31.17-9.38,49.9,6,107,47.79,135.87"/><path class="cls-7" d="m1033.38,579.65c9.38,49.9-6,107-47.75,135.87-1.82,1.2-4.07,2.62-6.69,4.11-.22-2.36-.36-4.73-.47-7.02-1.42-33.9,5.02-67.39,10.22-100.92,4.4-28.22,6.07-55.24,5.56-80.88l1.64-.04c11.09,1.2,19.68,8.47,25.97,17.71,6.29,9.2,9.46,20.18,11.53,31.17Z"/><path class="cls-6" d="m1007.52,767.24c3.16,3.16,2.58,8.73-.07,12.29-2.65,3.6-6.47,6.15-7.56,6.73-16.62,8.55-37.42,4.98-53.61-4.4-12.84-7.46-23.39-18.08-33.24-29.24-2.62-2.91-5.16-5.86-7.67-8.76-47.24-54.74-95.9-112.16-114.05-182.14-10.98-42.44-10.04-87.14-19.2-130.02-9.16-42.84-32.04-86.89-72.77-103.07,3.31-15.78,11.02-40.55,30.44-64.08,11.2-13.57,30.66-37.1,62.12-42.08,20.4-3.27,39.61-2.11,54.74,8.91,51.53,37.53,77.1,68.88,97.07,105.83,27.35,50.63,48.99,116.02,50.55,193.59.51,25.64-1.16,52.66-5.56,80.88-5.2,33.53-11.64,67.03-10.22,100.92.11,2.29.25,4.66.47,7.02,1.64,18,7.16,36.99,23.09,44.48,1.93.91,3.96,1.64,5.49,3.13Z"/><path class="cls-7" d="m913.03,752.62l-.04.04c-69.9,100.45-187.77,166.39-321.36,166.39-148.53,0-277.6-81.54-342.96-201.37,49.86-91.9,72.96-197.3,123.14-289.46,15.02-27.6,32.91-54.41,57.86-73.47,47.64-36.33,112.16-38.66,172.06-39.46,24.91-.36,51.57-.18,72.16,13.78.11-1.13.22-2.22.4-3.35l25.02,2.91c40.73,16.18,63.61,60.23,72.77,103.07,9.16,42.88,8.22,87.58,19.2,130.02,18.15,69.97,66.81,127.4,114.05,182.14,2.51,2.91,5.06,5.86,7.67,8.76Zm-148.31-172.93c0-12.07-9.78-21.82-21.82-21.82s-21.82,9.75-21.82,21.82,9.78,21.82,21.82,21.82,21.82-9.78,21.82-21.82Zm-345.03.44c0-13.06-10.58-23.64-23.64-23.64s-23.64,10.58-23.64,23.64,10.58,23.64,23.64,23.64,23.64-10.58,23.64-23.64Z"/><circle class="cls-7" cx="742.9" cy="579.69" r="21.82"/><path class="cls-6" d="m722.86,182.36c16.88,11.75,29.31,24.37,37.93,34.44-45.86,20-80.67,63.54-86.49,108.92-.18,1.13-.29,2.22-.4,3.35-20.58-13.97-47.24-14.15-72.16-13.78-59.9.8-124.42,3.13-172.06,39.46-24.95,19.06-42.84,45.86-57.86,73.47-50.19,92.16-73.28,197.56-123.14,289.46-4.76,8.8-9.78,17.49-15.09,26-4.66,7.49-9.82,15.13-17.46,19.57-7.64,4.44-18.44,4.66-24.48-1.78-9.09-9.78-1.89-25.28,3.75-37.39,1.24-2.69,2.4-5.42,3.46-8.18,13.13-34.3,11.49-73.07,5.06-109.43-5.78-32.8-9.09-56.48-10.58-76.45-1.16-15.24-1.24-28.26-.58-41.53,6.18-122.82,107.03-222.47,121.91-236.65,114.45-109.03,297.86-146.35,408.2-69.46Z"/><circle class="cls-1" cx="396.05" cy="580.13" r="23.64"/><path class="cls-4" d="m674.31,325.73c-.18,1.13-.29,2.22-.4,3.35-20.58-13.97-47.24-14.15-72.16-13.78-59.9.8-124.42,3.13-172.06,39.46-24.95,19.06-42.84,45.86-57.86,73.47-50.19,92.16-73.28,197.56-123.14,289.46-4.76,8.8-9.78,17.49-15.09,26-4.66,7.49-9.82,15.13-17.46,19.57-7.64,4.44-18.44,4.66-24.48-1.78-9.09-9.78-1.89-25.28,3.75-37.39,1.24-2.69,2.4-5.42,3.46-8.18,13.13-34.3,11.49-73.07,5.06-109.43-5.78-32.8-9.09-56.48-10.58-76.45-1.16-15.24-1.24-28.26-.58-41.53,6.18-122.82,107.03-222.47,121.91-236.65,114.45-109.03,297.86-146.35,408.2-69.46,16.88,11.75,29.31,24.37,37.93,34.44-45.86,20-80.67,63.54-86.49,108.92Z"/><path class="cls-4" d="m978.93,719.64c1.64,18,7.16,36.99,23.09,44.48,1.93.91,3.96,1.64,5.49,3.13,3.16,3.16,2.58,8.73-.07,12.29-2.65,3.6-6.47,6.15-7.56,6.73-16.62,8.55-37.42,4.98-53.61-4.4-12.84-7.46-23.39-18.08-33.24-29.24-2.62-2.91-5.16-5.86-7.67-8.76-47.24-54.74-95.9-112.16-114.05-182.14-10.98-42.44-10.04-87.14-19.2-130.02-9.16-42.84-32.04-86.89-72.77-103.07,3.31-15.78,11.02-40.55,30.44-64.08,11.2-13.57,30.66-37.1,62.12-42.08,20.4-3.27,39.61-2.11,54.74,8.91,51.53,37.53,77.1,68.88,97.07,105.83,27.35,50.63,48.99,116.02,50.55,193.59.51,25.64-1.16,52.66-5.56,80.88-5.2,33.53-11.64,67.03-10.22,100.92.11,2.29.25,4.66.47,7.02Z"/><path class="cls-4" d="m995.88,530.77c11.09,1.2,19.68,8.47,25.97,17.71,6.29,9.2,9.46,20.18,11.53,31.17,9.38,49.9-6,107-47.75,135.87-1.82,1.2-4.07,2.62-6.69,4.11"/><circle class="cls-2" cx="742.9" cy="579.69" r="21.82"/><circle class="cls-4" cx="396.05" cy="580.13" r="23.64"/><path class="cls-4" d="m691.07,515.35c23.71-18.58,56.01-20.51,86.12-21.68"/><path class="cls-4" d="m341.39,507.93c18.44-14.15,42.33-19.97,65.57-19.42,23.2.51,45.93,6.98,67.57,15.42"/><path class="cls-4" d="m575.49,615.69c-8.26,8.11-16.73,16.58-20.95,27.35-4.22,10.77-3.02,24.59,5.96,31.9,6.62,5.46,15.93,6.22,24.48,5.46,6.84-.62,13.93-2.22,19.2-6.62"/><path class="cls-5" d="m913,752.66c-69.9,100.45-187.77,166.39-321.36,166.39-148.53,0-277.6-81.54-342.96-201.37"/><path class="cls-5" d="m828.18,748.04c-65.5,49.24-147.51,78.56-236.54,78.56-74.77,0-144.6-20.69-203.88-56.48"/><path class="cls-3" d="m222.13,193.97c-3.67,1.34-7.16,1.75-10.47,1.24-3.31-.51-6.15-1.88-8.54-4.09l11.81-10.86c1.32,1.16,2.91,1.62,4.75,1.38,1.85-.23,3.59-1.1,5.22-2.6,1.49-1.37,2.39-2.71,2.7-4.01.31-1.3.05-2.4-.76-3.28-.98-1.06-2.28-1.31-3.91-.75-1.64.56-4.04,1.73-7.22,3.51-3.36,1.95-6.3,3.44-8.79,4.47-2.5,1.03-5.1,1.42-7.82,1.18-2.71-.24-5.23-1.62-7.55-4.14-1.95-2.13-3.12-4.63-3.49-7.51-.38-2.88.17-5.94,1.63-9.16,1.47-3.22,3.85-6.36,7.16-9.4,4.89-4.5,9.81-6.89,14.74-7.19,4.93-.29,9.36,1.28,13.28,4.69l-11.04,10.16c-1.37-1.11-2.89-1.58-4.59-1.41-1.7.17-3.36,1-4.99,2.5-1.4,1.29-2.24,2.53-2.51,3.72-.28,1.2-.01,2.24.8,3.12.98,1.06,2.31,1.31,3.98.75,1.68-.56,4.02-1.73,7.02-3.52,3.54-1.95,6.54-3.42,8.98-4.4,2.45-.98,5.06-1.34,7.84-1.08,2.77.26,5.37,1.66,7.78,4.18,2,2.17,3.13,4.7,3.42,7.58.29,2.88-.32,5.91-1.83,9.09-1.5,3.18-3.84,6.23-7.01,9.14-3.4,3.13-6.93,5.36-10.61,6.7Z"/><path class="cls-3" d="m282.7,98.22c-.17-4.41.75-8.42,2.76-12.02,2.02-3.59,4.91-6.48,8.7-8.67,3.23-1.87,6.43-2.88,9.59-3.04,3.16-.16,5.99.4,8.48,1.67l-3.57-6.17,14.06-8.12,25.17,43.58-14.05,8.12-3.57-6.17c-.2,2.82-1.16,5.56-2.87,8.22-1.72,2.66-4.19,4.92-7.42,6.79-3.73,2.15-7.66,3.19-11.8,3.12-4.14-.07-8.08-1.3-11.83-3.69-3.75-2.38-6.92-5.81-9.51-10.29-2.59-4.48-3.97-8.92-4.14-13.34Zm31.07-12.64c-3.06-.8-5.99-.4-8.78,1.22-2.79,1.62-4.62,3.94-5.46,6.96-.84,3.03-.31,6.2,1.62,9.53,1.92,3.33,4.42,5.41,7.5,6.24s6.01.44,8.8-1.18c2.8-1.61,4.61-3.95,5.44-7,.83-3.05.29-6.24-1.64-9.58-1.92-3.33-4.42-5.4-7.47-6.2Z"/><path class="cls-3" d="m435.91,56.73l4.06,12.43-7.85,2.56c-5.6,1.83-10.39,1.96-14.36.38-3.98-1.58-6.93-5.31-8.85-11.2l-6.22-19.03-6.13,2.01-3.98-12.17,6.13-2.01-3.81-11.66,15.43-5.04,3.81,11.66,10.11-3.3,3.98,12.17-10.11,3.3,6.27,19.21c.47,1.43,1.17,2.34,2.09,2.73.93.4,2.24.31,3.92-.24l5.51-1.8Z"/><path class="cls-3" d="m514.91,50.64c-4.36-1.63-7.93-4.25-10.72-7.87-2.79-3.62-4.48-8.03-5.06-13.23-.57-5.14.11-9.8,2.07-13.98,1.95-4.18,4.89-7.55,8.8-10.11,3.92-2.55,8.46-4.12,13.61-4.7,5.16-.58,9.93-.05,14.32,1.58,4.39,1.63,7.99,4.26,10.82,7.91s4.53,8.04,5.11,13.18c.57,5.14-.13,9.8-2.12,13.99-1.98,4.18-4.95,7.56-8.9,10.12-3.95,2.56-8.5,4.13-13.66,4.7-5.16.58-9.92.05-14.27-1.58Zm20.3-15.8c1.93-2.39,2.67-5.59,2.22-9.59s-1.85-6.96-4.19-8.88c-2.35-1.91-5.06-2.7-8.14-2.36-3.15.35-5.64,1.71-7.48,4.06-1.84,2.36-2.53,5.56-2.07,9.62.45,4,1.82,6.97,4.1,8.89,2.28,1.92,4.97,2.71,8.05,2.37,3.08-.35,5.59-1.71,7.52-4.11Z"/><path class="cls-3" d="m658.19,3.43c2.64,1.75,4.57,3.88,5.82,6.38l.81-7.08,16.13,1.84-5.69,49.92c-.53,4.6-1.96,8.66-4.3,12.17-2.35,3.51-5.61,6.15-9.79,7.92-4.18,1.76-9.2,2.31-15.05,1.64-7.8-.89-13.92-3.36-18.37-7.4-4.44-4.04-6.67-9.1-6.68-15.15l15.95,1.82c.28,1.97,1.31,3.61,3.07,4.94,1.76,1.32,4.02,2.14,6.79,2.45,3.33.38,6.09-.23,8.28-1.83,2.19-1.6,3.51-4.4,3.97-8.4l.8-7.08c-1.84,2.15-4.22,3.8-7.15,4.95-2.94,1.15-6.26,1.51-9.97,1.09-4.34-.49-8.15-2-11.43-4.52-3.28-2.52-5.72-5.85-7.32-10-1.6-4.15-2.11-8.79-1.52-13.93.58-5.14,2.12-9.53,4.61-13.18,2.49-3.65,5.61-6.32,9.37-8.01,3.76-1.69,7.81-2.29,12.15-1.79,3.71.42,6.89,1.51,9.52,3.26Zm1.46,14.87c-1.98-2.46-4.57-3.88-7.78-4.25-3.21-.37-6.05.42-8.53,2.34-2.48,1.93-3.94,4.8-4.37,8.63-.44,3.82.33,6.98,2.31,9.48,1.98,2.49,4.57,3.93,7.78,4.29,3.21.37,6.05-.43,8.54-2.39,2.48-1.95,3.94-4.85,4.38-8.67.44-3.82-.34-6.97-2.32-9.43Z"/><path class="cls-3" d="m753.15,71.54c-3.2-3.37-5.26-7.3-6.18-11.78-.93-4.48-.51-9.18,1.24-14.11,1.73-4.87,4.39-8.76,7.99-11.66,3.58-2.9,7.7-4.64,12.34-5.23,4.64-.58,9.4,0,14.29,1.74,4.89,1.74,8.95,4.31,12.18,7.69,3.23,3.39,5.32,7.33,6.26,11.85.95,4.52.55,9.21-1.18,14.08-1.73,4.87-4.41,8.76-8.03,11.65-3.61,2.89-7.76,4.62-12.43,5.2-4.67.57-9.45-.02-14.34-1.76-4.89-1.74-8.93-4.3-12.13-7.67Zm25.17-5.3c2.79-1.31,4.85-3.86,6.2-7.65s1.39-7.07.12-9.82-3.37-4.64-6.29-5.69c-2.98-1.06-5.82-.94-8.5.37-2.69,1.31-4.72,3.89-6.08,7.74-1.35,3.8-1.42,7.06-.21,9.79,1.21,2.73,3.28,4.61,6.2,5.66,2.92,1.04,5.77.91,8.55-.4Z"/><path class="cls-3" d="m923.56,103.73l-67.85,44.84-14.74-9.37,23.99-15.1,7.88-52.59,15.31,9.73-6.54,33.14,27.14-20.05,14.82,9.42Z"/><path class="cls-3" d="m973.37,159.09c4.22-1.28,8.34-1.4,12.32-.35,3.99,1.05,7.52,3.12,10.59,6.23,2.62,2.66,4.4,5.5,5.36,8.52.95,3.02,1.12,5.89.52,8.62l5.07-5,11.4,11.56-35.83,35.35-11.4-11.56,5.07-5c-2.78.52-5.67.29-8.68-.71-3.01-.99-5.82-2.82-8.44-5.47-3.02-3.06-5.02-6.61-5.99-10.63-.97-4.02-.77-8.15.58-12.38,1.36-4.23,3.88-8.16,7.56-11.79,3.68-3.63,7.64-6.09,11.86-7.37Zm20.07,26.88c0-3.16-1.13-5.89-3.4-8.19-2.26-2.3-4.97-3.48-8.11-3.54-3.14-.06-6.08,1.27-8.82,3.97-2.74,2.7-4.13,5.64-4.15,8.83-.03,3.18,1.1,5.92,3.36,8.22s4.98,3.47,8.14,3.5c3.16.04,6.11-1.29,8.85-4,2.74-2.7,4.12-5.64,4.12-8.8Z"/><text class="cls-12" transform="translate(203.85 1087.73)"><tspan class="cls-10" x="0" y="0">さ</tspan><tspan class="cls-14" x="199.75" y="0">と</tspan><tspan class="cls-9" x="405.31" y="0">ご</tspan><tspan class="cls-8" x="622.48" y="-11.16">や</tspan></text><text class="cls-13" transform="translate(0 1418.64)"><tspan x="0" y="0">ただいまサイトを読み込み</tspan><tspan class="cls-11" x="996" y="0">中</tspan><tspan x="1099.75" y="0">... </tspan></text></g></svg>