<?xml version="1.0" encoding="UTF-8"?><svg id="_レイヤー_2" xmlns="http://www.w3.org/2000/svg" viewBox="0 0 210.96 267.67"><defs><style>.cls-1{fill:#fff;}.cls-2,.cls-3,.cls-4,.cls-5,.cls-6,.cls-7{stroke:#3d291b;}.cls-2,.cls-6,.cls-7{fill:none;}.cls-8,.cls-4,.cls-9{fill:#3d291b;}.cls-3{fill:#e9d7c5;}.cls-3,.cls-4,.cls-5,.cls-6,.cls-7,.cls-9{stroke-miterlimit:10;}.cls-4,.cls-6,.cls-7{stroke-linecap:round;}.cls-4,.cls-7{stroke-width:1.95px;}.cls-5{fill:#8c7a68;}.cls-6{stroke-width:1.82px;}.cls-9{stroke:#8c7a68;}</style></defs><g id="_レイヤー_1-2"><rect class="cls-1" x="0" y="0" width="210.96" height="267.67" rx="105.48" ry="105.48"/><path class="cls-5" d="m179.96,165.36c.57.57.46,1.56-.01,2.2-.48.64-1.16,1.1-1.36,1.21-2.98,1.53-6.7.89-9.6-.79-2.3-1.34-4.19-3.24-5.95-5.24-.47-.52-.93-1.05-1.37-1.57-8.46-9.81-17.18-20.09-20.43-32.63-1.97-7.6-1.8-15.61-3.44-23.29-1.64-7.67-5.74-15.56-13.04-18.46.59-2.83,1.97-7.26,5.45-11.48,2.01-2.43,5.49-6.65,11.13-7.54,3.65-.59,7.09-.38,9.81,1.6,9.23,6.72,13.81,12.34,17.39,18.96,4.9,9.07,8.78,20.78,9.06,34.68.09,4.59-.21,9.43-1,14.49-.93,6.01-2.08,12.01-1.83,18.08.02.41.05.83.08,1.26.29,3.22,1.28,6.63,4.14,7.97.35.16.71.29.98.56Z"/><path class="cls-3" d="m163.03,162.75h0c-12.52,18-33.64,29.81-57.57,29.81-26.61,0-49.73-14.61-61.44-36.07,8.93-16.46,13.07-35.34,22.06-51.85,2.69-4.94,5.9-9.75,10.37-13.16,8.53-6.51,20.09-6.93,30.82-7.07,4.46-.07,9.24-.03,12.93,2.47.02-.2.04-.4.07-.6l4.48.52c7.3,2.9,11.39,10.79,13.04,18.46,1.64,7.68,1.47,15.69,3.44,23.29,3.25,12.53,11.97,22.82,20.43,32.63.45.52.91,1.05,1.37,1.57Zm-26.57-30.98c0-2.16-1.75-3.91-3.91-3.91s-3.91,1.75-3.91,3.91,1.75,3.91,3.91,3.91,3.91-1.75,3.91-3.91Zm-61.81.08c0-2.34-1.9-4.23-4.23-4.23s-4.23,1.9-4.23,4.23,1.9,4.23,4.23,4.23,4.23-1.9,4.23-4.23Z"/><circle class="cls-3" cx="132.55" cy="131.77" r="3.91"/><path class="cls-5" d="m128.97,60.59c3.02,2.1,5.25,4.37,6.8,6.17-8.22,3.58-14.45,11.38-15.49,19.51-.03.2-.05.4-.07.6-3.69-2.5-8.46-2.53-12.93-2.47-10.73.14-22.29.56-30.82,7.07-4.47,3.41-7.67,8.22-10.37,13.16-8.99,16.51-13.13,35.39-22.06,51.85-.85,1.58-1.75,3.13-2.7,4.66-.83,1.34-1.76,2.71-3.13,3.51s-3.3.83-4.38-.32c-1.63-1.75-.34-4.53.67-6.7.22-.48.43-.97.62-1.47,2.35-6.14,2.06-13.09.91-19.6-1.04-5.88-1.63-10.12-1.9-13.69-.21-2.73-.22-5.06-.1-7.44,1.11-22,19.17-39.85,21.84-42.39,20.5-19.53,53.36-26.22,73.12-12.44Z"/><circle class="cls-9" cx="70.42" cy="131.84" r="4.23"/><path class="cls-3" d="m36,136.56c1.15,6.52,1.45,13.46-.91,19.6l-.17-.07c-7.49-5.17-10.24-15.4-8.56-24.34.37-1.97.94-3.94,2.07-5.58,1.13-1.65,2.67-2.96,4.66-3.17l1.02-.14c.27,3.58.86,7.82,1.9,13.69Z"/><path class="cls-7" d="m120.27,86.27c-.03.2-.05.4-.07.6-3.69-2.5-8.46-2.53-12.93-2.47-10.73.14-22.29.56-30.82,7.07-4.47,3.41-7.67,8.22-10.37,13.16-8.99,16.51-13.13,35.39-22.06,51.85-.85,1.58-1.75,3.13-2.7,4.66-.83,1.34-1.76,2.71-3.13,3.51s-3.3.83-4.38-.32c-1.63-1.75-.34-4.53.67-6.7.22-.48.43-.97.62-1.47,2.35-6.14,2.06-13.09.91-19.6-1.04-5.88-1.63-10.12-1.9-13.69-.21-2.73-.22-5.06-.1-7.44,1.11-22,19.17-39.85,21.84-42.39,20.5-19.53,53.36-26.22,73.12-12.44,3.02,2.1,5.25,4.37,6.8,6.17-8.22,3.58-14.45,11.38-15.49,19.51Z"/><path class="cls-7" d="m174.84,156.84c.29,3.22,1.28,6.63,4.14,7.97.35.16.71.29.98.56.57.57.46,1.56-.01,2.2-.48.64-1.16,1.1-1.36,1.21-2.98,1.53-6.7.89-9.6-.79-2.3-1.34-4.19-3.24-5.95-5.24-.47-.52-.93-1.05-1.37-1.57-8.46-9.81-17.18-20.09-20.43-32.63-1.97-7.6-1.8-15.61-3.44-23.29-1.64-7.67-5.74-15.56-13.04-18.46.59-2.83,1.97-7.26,5.45-11.48,2.01-2.43,5.49-6.65,11.13-7.54,3.65-.59,7.09-.38,9.81,1.6,9.23,6.72,13.81,12.34,17.39,18.96,4.9,9.07,8.78,20.78,9.06,34.68.09,4.59-.21,9.43-1,14.49-.93,6.01-2.08,12.01-1.83,18.08.02.41.05.83.08,1.26Z"/><path class="cls-7" d="m33.09,123c-1.99.21-3.53,1.52-4.66,3.17-1.12,1.65-1.69,3.62-2.07,5.58-1.68,8.94,1.07,19.17,8.56,24.34"/><circle class="cls-4" cx="132.55" cy="131.77" r="3.91"/><circle class="cls-7" cx="70.42" cy="131.84" r="4.23"/><path class="cls-7" d="m123.27,120.24c4.25-3.33,10.03-3.67,15.43-3.88"/><path class="cls-7" d="m60.63,118.91c3.3-2.53,7.58-3.58,11.75-3.48,4.16.09,8.23,1.25,12.1,2.76"/><path class="cls-7" d="m102.57,138.22c-1.48,1.45-3,2.97-3.75,4.9s-.54,4.4,1.07,5.71c1.19.98,2.85,1.11,4.38.98,1.22-.11,2.5-.4,3.44-1.19"/><path class="cls-6" d="m163.03,162.75c-12.52,17.99-33.64,29.81-57.57,29.81-26.61,0-49.73-14.61-61.44-36.07"/><path class="cls-6" d="m147.83,161.92c-11.73,8.82-26.42,14.07-42.37,14.07-13.39,0-25.9-3.71-36.52-10.12"/><path class="cls-8" d="m39.27,62.67c-.66.24-1.28.31-1.88.22-.59-.09-1.1-.34-1.53-.73l2.12-1.95c.24.21.52.29.85.25.33-.04.64-.2.94-.47.27-.25.43-.48.48-.72.05-.23,0-.43-.14-.59-.17-.19-.41-.23-.7-.13-.29.1-.72.31-1.29.63-.6.35-1.13.62-1.57.8-.45.18-.91.25-1.4.21s-.94-.29-1.35-.74c-.35-.38-.56-.83-.62-1.35-.07-.52.03-1.06.29-1.64.26-.58.69-1.14,1.28-1.68.88-.81,1.76-1.23,2.64-1.29.88-.05,1.68.23,2.38.84l-1.98,1.82c-.25-.2-.52-.28-.82-.25s-.6.18-.89.45c-.25.23-.4.45-.45.67-.05.21,0,.4.14.56.18.19.41.23.71.13.3-.1.72-.31,1.26-.63.63-.35,1.17-.61,1.61-.79.44-.18.91-.24,1.4-.19.5.05.96.3,1.39.75.36.39.56.84.61,1.36.05.52-.06,1.06-.33,1.63-.27.57-.69,1.12-1.25,1.64-.61.56-1.24.96-1.9,1.2Z"/><path class="cls-8" d="m50.12,45.52c-.03-.79.13-1.51.5-2.15.36-.64.88-1.16,1.56-1.55.58-.33,1.15-.52,1.72-.54.57-.03,1.07.07,1.52.3l-.64-1.11,2.52-1.45,4.51,7.81-2.52,1.46-.64-1.1c-.04.51-.21,1-.51,1.47s-.75.88-1.33,1.22c-.67.39-1.37.57-2.11.56s-1.45-.23-2.12-.66c-.67-.43-1.24-1.04-1.7-1.84-.46-.8-.71-1.6-.74-2.39Zm5.57-2.26c-.55-.14-1.07-.07-1.57.22-.5.29-.83.71-.98,1.25-.15.54-.06,1.11.29,1.71.34.6.79.97,1.34,1.12s1.08.08,1.58-.21c.5-.29.83-.71.97-1.25s.05-1.12-.29-1.72c-.34-.6-.79-.97-1.34-1.11Z"/><path class="cls-8" d="m77.56,38.08l.73,2.23-1.41.46c-1,.33-1.86.35-2.57.07-.71-.28-1.24-.95-1.59-2.01l-1.11-3.41-1.1.36-.71-2.18,1.1-.36-.68-2.09,2.76-.9.68,2.09,1.81-.59.71,2.18-1.81.59,1.12,3.44c.08.26.21.42.38.49.17.07.4.06.7-.04l.99-.32Z"/><path class="cls-8" d="m91.71,36.99c-.78-.29-1.42-.76-1.92-1.41s-.8-1.44-.91-2.37c-.1-.92.02-1.76.37-2.5.35-.75.88-1.35,1.58-1.81.7-.46,1.51-.74,2.44-.84s1.78,0,2.56.28c.79.29,1.43.76,1.94,1.42s.81,1.44.92,2.36c.1.92-.02,1.76-.38,2.51s-.89,1.35-1.59,1.81c-.71.46-1.52.74-2.45.84s-1.78,0-2.56-.28Zm3.64-2.83c.35-.43.48-1,.4-1.72s-.33-1.25-.75-1.59c-.42-.34-.91-.48-1.46-.42-.56.06-1.01.31-1.34.73-.33.42-.45,1-.37,1.72.08.72.33,1.25.73,1.59.41.34.89.49,1.44.42.55-.06,1-.31,1.35-.74Z"/><path class="cls-8" d="m117.38,28.54c.47.31.82.7,1.04,1.14l.14-1.27,2.89.33-1.02,8.94c-.09.82-.35,1.55-.77,2.18-.42.63-1,1.1-1.75,1.42-.75.32-1.65.41-2.7.29-1.4-.16-2.49-.6-3.29-1.33-.8-.72-1.2-1.63-1.2-2.71l2.86.33c.05.35.23.65.55.88.32.24.72.38,1.22.44.6.07,1.09-.04,1.48-.33.39-.29.63-.79.71-1.5l.14-1.27c-.33.39-.76.68-1.28.89-.53.21-1.12.27-1.79.19-.78-.09-1.46-.36-2.05-.81-.59-.45-1.02-1.05-1.31-1.79-.29-.74-.38-1.57-.27-2.49.1-.92.38-1.71.83-2.36.45-.65,1-1.13,1.68-1.44.67-.3,1.4-.41,2.18-.32.67.08,1.23.27,1.71.58Zm.26,2.66c-.35-.44-.82-.7-1.39-.76-.57-.07-1.08.07-1.53.42-.44.35-.71.86-.78,1.55s.06,1.25.41,1.7c.35.45.82.7,1.39.77.57.07,1.08-.08,1.53-.43.44-.35.71-.87.78-1.55.08-.68-.06-1.25-.42-1.69Z"/><path class="cls-8" d="m134.39,40.74c-.57-.6-.94-1.31-1.11-2.11-.17-.8-.09-1.65.22-2.53.31-.87.79-1.57,1.43-2.09.64-.52,1.38-.83,2.21-.94.83-.1,1.68,0,2.56.31.88.31,1.6.77,2.18,1.38.58.61.95,1.31,1.12,2.12.17.81.1,1.65-.21,2.52-.31.87-.79,1.57-1.44,2.09-.65.52-1.39.83-2.23.93-.84.1-1.69,0-2.57-.31s-1.6-.77-2.17-1.37Zm4.51-.95c.5-.23.87-.69,1.11-1.37s.25-1.27.02-1.76-.6-.83-1.13-1.02c-.53-.19-1.04-.17-1.52.07-.48.23-.84.7-1.09,1.39-.24.68-.25,1.26-.04,1.75s.59.83,1.11,1.01c.52.19,1.03.16,1.53-.07Z"/><path class="cls-8" d="m164.92,46.5l-12.16,8.03-2.64-1.68,4.3-2.71,1.41-9.42,2.74,1.74-1.17,5.94,4.86-3.59,2.66,1.69Z"/><path class="cls-8" d="m173.84,56.42c.76-.23,1.49-.25,2.21-.06.71.19,1.35.56,1.9,1.12.47.48.79.98.96,1.53.17.54.2,1.06.09,1.54l.91-.9,2.04,2.07-6.42,6.33-2.04-2.07.91-.9c-.5.09-1.02.05-1.55-.13-.54-.18-1.04-.5-1.51-.98-.54-.55-.9-1.18-1.07-1.9-.17-.72-.14-1.46.1-2.22.24-.76.7-1.46,1.35-2.11.66-.65,1.37-1.09,2.12-1.32Zm3.59,4.82c0-.57-.2-1.06-.61-1.47-.41-.41-.89-.62-1.45-.63-.56-.01-1.09.23-1.58.71-.49.48-.74,1.01-.74,1.58s.2,1.06.6,1.47.89.62,1.46.63c.57,0,1.09-.23,1.58-.72.49-.48.74-1.01.74-1.58Z"/><path class="cls-8" d="m52.01,214.14c-1.2-1.35-2.11-2.81-3.02-4.55-2.71.49-5.56.83-8.04.96-.94.05-1.43-.7-1.43-1.43,0-.62.39-1.27,1.25-1.3,2.18-.1,4.68-.39,7.07-.78-.52-1.35-.99-2.7-1.35-4.03-.03-.1-.05-.21-.05-.31,0-.78.78-1.27,1.53-1.27.57,0,1.14.29,1.33.99.34,1.33.75,2.76,1.3,4.11,1.98-.42,3.8-.91,5.23-1.4.18-.08.39-.1.55-.1.83,0,1.4.7,1.4,1.4,0,.52-.31,1.04-1.07,1.3-1.38.47-3.09.94-4.94,1.33.96,1.82,2.31,3.74,4.26,5.85.31.34.44.73.44,1.09,0,.78-.6,1.48-1.43,1.48-.16,0-.34-.05-.52-.1-2-.7-3.93-.99-6.01-.99-3.15,0-4.21.96-4.21,2.39s1.17,2.47,5.04,2.47c1.07,0,1.9-.05,2.73-.13,1.01-.1,1.56.65,1.56,1.4,0,.62-.39,1.25-1.27,1.35-.86.1-1.82.16-2.96.16-5.3,0-8.11-2-8.11-5.28,0-2.81,2.16-4.89,7.2-4.89,1.4,0,2.44.13,3.48.34l.03-.05Z"/><path class="cls-8" d="m80.72,202.83c0-.94.75-1.4,1.51-1.4s1.51.47,1.51,1.4c0,2.91.23,5.51.6,7.62,1.59-.78,3.35-1.48,5.12-2.03.16-.05.31-.08.47-.08.81,0,1.35.73,1.35,1.46,0,.55-.29,1.07-.96,1.27-2.31.73-4.92,1.79-6.84,3.02-2.24,1.46-3.02,2.89-3.02,4.21,0,1.61,1.07,2.44,5.2,2.44,2.08,0,3.93-.18,5.38-.47,1.12-.21,1.74.6,1.74,1.4,0,.65-.36,1.27-1.17,1.46-1.77.36-3.77.49-5.98.49-5.46,0-8.19-1.66-8.19-5.17,0-2.13.99-4.24,4.24-6.45-.57-2.5-.96-5.59-.96-9.18Z"/><path class="cls-8" d="m112.63,217.73c0-.62.1-1.35.29-1.95.21-.73.83-1.04,1.46-1.04.73,0,1.43.44,1.43,1.2,0,.1-.03.23-.05.36-.1.39-.16.91-.16,1.3,0,1.64.88,2.52,5.75,2.52,2.52,0,4.94-.31,7.1-.75.16-.03.29-.05.42-.05.86,0,1.38.7,1.38,1.43,0,.62-.39,1.27-1.27,1.48-2.29.52-4.81.81-7.62.81-6.27,0-8.71-1.77-8.71-5.3Zm8.35-12.95c1.64,0,3.38-.08,4.65-.29,1.07-.13,1.64.65,1.64,1.43,0,.62-.36,1.25-1.17,1.4-1.56.23-3.38.31-5.1.31s-3.74-.1-5.41-.44c-.78-.18-1.14-.81-1.14-1.43,0-.83.62-1.66,1.72-1.46,1.38.29,3.15.47,4.81.47Zm6.34-1.79c0-.52.52-.96,1.09-.96.26,0,.55.1.78.36.65.7,1.35,1.61,1.82,2.44.13.21.18.42.18.62,0,.6-.52,1.04-1.07,1.04-.34,0-.68-.18-.88-.57-.55-.91-1.17-1.72-1.72-2.37-.16-.18-.21-.39-.21-.57Zm2.76-1.82c0-.52.52-.91,1.07-.91.29,0,.6.1.86.36.62.65,1.33,1.51,1.79,2.31.16.26.23.49.23.7,0,.6-.49,1.01-1.04,1.01-.34,0-.7-.18-.96-.57-.52-.81-1.17-1.66-1.72-2.34-.16-.18-.23-.39-.23-.57Z"/><path class="cls-8" d="m154.81,210.09c-1.17.47-2.44,1.01-3.82,1.66-.23.1-.44.16-.65.16-.78,0-1.33-.7-1.33-1.4,0-.49.26-.99.86-1.27,1.48-.68,2.81-1.25,4.06-1.74l-1.48-4.32c-.05-.16-.08-.29-.08-.42,0-.78.81-1.25,1.56-1.25.55,0,1.09.26,1.3.83l1.4,4.13c3.72-1.27,6.34-1.69,8.68-1.69,4.08,0,6.42,1.87,6.42,4.73,0,3.25-2.31,5.15-5.56,5.15-1.04,0-1.82-.08-2.57-.26-.91-.23-1.33-.88-1.33-1.51,0-.73.55-1.4,1.46-1.4.16,0,.31,0,.49.05.52.13,1.17.23,1.82.23,1.66,0,2.65-.86,2.65-2.26,0-1.17-.99-2.05-3.43-2.05-2.05,0-4.42.42-7.75,1.59l3.87,11.47c.05.18.08.34.08.49,0,.83-.75,1.38-1.51,1.38-.52,0-1.07-.29-1.27-.94l-3.87-11.36Zm9.8-7.31c0,.78-.7,1.46-1.51,1.46-.34,0-.7-.1-1.04-.42-.81-.68-1.59-1.25-2.55-1.82-.47-.31-.68-.75-.68-1.14,0-.73.62-1.4,1.46-1.4.29,0,.6.08.91.26.96.49,1.72,1.01,2.81,1.92.42.36.6.75.6,1.14Z"/><path class="cls-2" d="m52.01,214.14c-1.2-1.35-2.11-2.81-3.02-4.55-2.71.49-5.56.83-8.04.96-.94.05-1.43-.7-1.43-1.43,0-.62.39-1.27,1.25-1.3,2.18-.1,4.68-.39,7.07-.78-.52-1.35-.99-2.7-1.35-4.03-.03-.1-.05-.21-.05-.31,0-.78.78-1.27,1.53-1.27.57,0,1.14.29,1.33.99.34,1.33.75,2.76,1.3,4.11,1.98-.42,3.8-.91,5.23-1.4.18-.08.39-.1.55-.1.83,0,1.4.7,1.4,1.4,0,.52-.31,1.04-1.07,1.3-1.38.47-3.09.94-4.94,1.33.96,1.82,2.31,3.74,4.26,5.85.31.34.44.73.44,1.09,0,.78-.6,1.48-1.43,1.48-.16,0-.34-.05-.52-.1-2-.7-3.93-.99-6.01-.99-3.15,0-4.21.96-4.21,2.39s1.17,2.47,5.04,2.47c1.07,0,1.9-.05,2.73-.13,1.01-.1,1.56.65,1.56,1.4,0,.62-.39,1.25-1.27,1.35-.86.1-1.82.16-2.96.16-5.3,0-8.11-2-8.11-5.28,0-2.81,2.16-4.89,7.2-4.89,1.4,0,2.44.13,3.48.34l.03-.05Z"/><path class="cls-2" d="m80.72,202.83c0-.94.75-1.4,1.51-1.4s1.51.47,1.51,1.4c0,2.91.23,5.51.6,7.62,1.59-.78,3.35-1.48,5.12-2.03.16-.05.31-.08.47-.08.81,0,1.35.73,1.35,1.46,0,.55-.29,1.07-.96,1.27-2.31.73-4.92,1.79-6.84,3.02-2.24,1.46-3.02,2.89-3.02,4.21,0,1.61,1.07,2.44,5.2,2.44,2.08,0,3.93-.18,5.38-.47,1.12-.21,1.74.6,1.74,1.4,0,.65-.36,1.27-1.17,1.46-1.77.36-3.77.49-5.98.49-5.46,0-8.19-1.66-8.19-5.17,0-2.13.99-4.24,4.24-6.45-.57-2.5-.96-5.59-.96-9.18Z"/><path class="cls-2" d="m112.63,217.73c0-.62.1-1.35.29-1.95.21-.73.83-1.04,1.46-1.04.73,0,1.43.44,1.43,1.2,0,.1-.03.23-.05.36-.1.39-.16.91-.16,1.3,0,1.64.88,2.52,5.75,2.52,2.52,0,4.94-.31,7.1-.75.16-.03.29-.05.42-.05.86,0,1.38.7,1.38,1.43,0,.62-.39,1.27-1.27,1.48-2.29.52-4.81.81-7.62.81-6.27,0-8.71-1.77-8.71-5.3Zm8.35-12.95c1.64,0,3.38-.08,4.65-.29,1.07-.13,1.64.65,1.64,1.43,0,.62-.36,1.25-1.17,1.4-1.56.23-3.38.31-5.1.31s-3.74-.1-5.41-.44c-.78-.18-1.14-.81-1.14-1.43,0-.83.62-1.66,1.72-1.46,1.38.29,3.15.47,4.81.47Zm6.34-1.79c0-.52.52-.96,1.09-.96.26,0,.55.1.78.36.65.7,1.35,1.61,1.82,2.44.13.21.18.42.18.62,0,.6-.52,1.04-1.07,1.04-.34,0-.68-.18-.88-.57-.55-.91-1.17-1.72-1.72-2.37-.16-.18-.21-.39-.21-.57Zm2.76-1.82c0-.52.52-.91,1.07-.91.29,0,.6.1.86.36.62.65,1.33,1.51,1.79,2.31.16.26.23.49.23.7,0,.6-.49,1.01-1.04,1.01-.34,0-.7-.18-.96-.57-.52-.81-1.17-1.66-1.72-2.34-.16-.18-.23-.39-.23-.57Z"/><path class="cls-2" d="m154.81,210.09c-1.17.47-2.44,1.01-3.82,1.66-.23.1-.44.16-.65.16-.78,0-1.33-.7-1.33-1.4,0-.49.26-.99.86-1.27,1.48-.68,2.81-1.25,4.06-1.74l-1.48-4.32c-.05-.16-.08-.29-.08-.42,0-.78.81-1.25,1.56-1.25.55,0,1.09.26,1.3.83l1.4,4.13c3.72-1.27,6.34-1.69,8.68-1.69,4.08,0,6.42,1.87,6.42,4.73,0,3.25-2.31,5.15-5.56,5.15-1.04,0-1.82-.08-2.57-.26-.91-.23-1.33-.88-1.33-1.51,0-.73.55-1.4,1.46-1.4.16,0,.31,0,.49.05.52.13,1.17.23,1.82.23,1.66,0,2.65-.86,2.65-2.26,0-1.17-.99-2.05-3.43-2.05-2.05,0-4.42.42-7.75,1.59l3.87,11.47c.05.18.08.34.08.49,0,.83-.75,1.38-1.51,1.38-.52,0-1.07-.29-1.27-.94l-3.87-11.36Zm9.8-7.31c0,.78-.7,1.46-1.51,1.46-.34,0-.7-.1-1.04-.42-.81-.68-1.59-1.25-2.55-1.82-.47-.31-.68-.75-.68-1.14,0-.73.62-1.4,1.46-1.4.29,0,.6.08.91.26.96.49,1.72,1.01,2.81,1.92.42.36.6.75.6,1.14Z"/></g></svg>