<?xml version="1.0" encoding="UTF-8"?><svg id="_レイヤー_2" xmlns="http://www.w3.org/2000/svg" viewBox="0 0 3223.99 4090.68"><defs><style>.cls-1{fill:#fff;}.cls-2,.cls-3,.cls-4,.cls-5,.cls-6,.cls-7{stroke-miterlimit:10;}.cls-2,.cls-3,.cls-5,.cls-6,.cls-7{stroke:#3d291b;}.cls-2,.cls-5{fill:none;}.cls-2,.cls-5,.cls-6{stroke-linecap:round;}.cls-2,.cls-6{stroke-width:29.87px;}.cls-8,.cls-4,.cls-6{fill:#3d291b;}.cls-3{fill:#8c7a68;}.cls-3,.cls-4,.cls-7{stroke-width:15.28px;}.cls-9{letter-spacing:.38em;}.cls-10{letter-spacing:.42em;}.cls-11{letter-spacing:-.09em;}.cls-12{fill:#32231f;font-family:DNPShueiMGoStd-B-90ms-RKSJ-H, 'DNP ShueiMGoStd';font-size:397.35px;}.cls-4{stroke:#8c7a68;}.cls-5{stroke-width:27.78px;}.cls-7{fill:#e9d7c5;}</style></defs><g id="_レイヤー_1-2"><rect class="cls-1" x="0" y="0" width="3223.99" height="4090.68" rx="1611.99" ry="1611.99"/><path class="cls-7" d="m2821.04,2013.65c25.69,136.61-16.43,292.93-130.73,371.98-4.98,3.29-11.15,7.17-18.32,11.25-.6-6.47-1-12.94-1.29-19.22-3.88-92.8,13.74-184.5,27.98-276.3,12.05-77.26,16.63-151.24,15.23-221.44l4.48-.1c30.37,3.29,53.87,23.2,71.09,48.49,17.23,25.19,25.89,55.26,31.56,85.33Z"/><path class="cls-3" d="m2750.25,2527.21c8.66,8.66,7.07,23.9-.2,33.65-7.27,9.86-17.72,16.83-20.71,18.42-45.5,23.4-102.45,13.64-146.76-12.05-35.15-20.41-64.02-49.49-91-80.05-7.17-7.97-14.14-16.03-21.01-24-129.34-149.85-262.56-307.07-312.24-498.63-30.07-116.2-27.48-238.56-52.57-355.95-25.09-117.29-87.72-237.87-199.23-282.17,9.06-43.21,30.17-111.02,83.34-175.44,30.67-37.14,83.94-101.56,170.06-115.2,55.86-8.96,108.43-5.77,149.85,24.39,141.09,102.75,211.08,188.58,265.75,289.74,74.87,138.6,134.12,317.62,138.4,530,1.39,70.2-3.19,144.17-15.23,221.44-14.24,91.8-31.86,183.5-27.98,276.3.3,6.27.7,12.74,1.29,19.22,4.48,49.29,19.61,101.26,63.23,121.77,5.28,2.49,10.85,4.48,15.03,8.56Z"/><path class="cls-7" d="m2491.57,2487.19l-.1.1c-191.37,275.01-514.07,455.52-879.78,455.52-406.63,0-760-223.23-938.92-551.3,136.51-251.61,199.73-540.15,337.14-792.46,41.12-75.57,90.11-148.95,158.41-201.13,130.43-99.47,307.07-105.84,471.05-108.03,68.2-1,141.19-.5,197.54,37.74.3-3.09.6-6.07,1.1-9.16l68.5,7.97c111.52,44.31,174.14,164.88,199.23,282.17,25.09,117.39,22.5,239.76,52.57,355.95,49.68,191.57,182.91,348.78,312.24,498.63,6.87,7.97,13.84,16.03,21.01,24Zm-406.04-473.44c0-33.06-26.78-59.74-59.74-59.74s-59.74,26.68-59.74,59.74,26.78,59.74,59.74,59.74,59.74-26.78,59.74-59.74Zm-944.6,1.19c0-35.74-28.97-64.72-64.72-64.72s-64.72,28.97-64.72,64.72,28.97,64.72,64.72,64.72,64.72-28.97,64.72-64.72Z"/><circle class="cls-7" cx="2025.8" cy="2013.75" r="59.74"/><path class="cls-3" d="m1970.93,925.97c46.2,32.16,80.25,66.71,103.85,94.29-125.55,54.76-220.84,173.94-236.77,298.2-.5,3.09-.8,6.07-1.1,9.16-56.36-38.23-129.34-38.73-197.54-37.74-163.99,2.19-340.62,8.56-471.05,108.03-68.3,52.17-117.29,125.55-158.41,201.13-137.4,252.3-200.63,540.85-337.14,792.46-13.04,24.1-26.78,47.89-41.32,71.19-12.74,20.51-26.88,41.42-47.79,53.57-20.91,12.15-50.48,12.74-67.01-4.88-24.89-26.78-5.18-69.2,10.26-102.36,3.39-7.37,6.57-14.84,9.46-22.4,35.94-93.89,31.46-200.03,13.84-299.6-15.83-89.81-24.89-154.63-28.97-209.29-3.19-41.72-3.39-77.36-1.59-113.71,16.93-336.24,293.03-609.05,333.75-647.89,313.34-298.5,815.46-400.66,1117.54-190.17Z"/><circle class="cls-4" cx="1076.22" cy="2014.94" r="64.72"/><path class="cls-2" d="m1838.01,1318.47c-.5,3.09-.8,6.07-1.1,9.16-56.36-38.23-129.34-38.73-197.54-37.74-163.99,2.19-340.62,8.56-471.05,108.03-68.3,52.17-117.29,125.55-158.41,201.13-137.4,252.3-200.63,540.85-337.14,792.46-13.04,24.1-26.78,47.89-41.32,71.19-12.74,20.51-26.88,41.42-47.79,53.57-20.91,12.15-50.48,12.74-67.01-4.88-24.89-26.78-5.18-69.2,10.26-102.36,3.39-7.37,6.57-14.84,9.46-22.4,35.94-93.89,31.46-200.03,13.84-299.6-15.83-89.81-24.89-154.63-28.97-209.29-3.19-41.72-3.39-77.36-1.59-113.71,16.93-336.24,293.03-609.05,333.75-647.89,313.34-298.5,815.46-400.66,1117.54-190.17,46.2,32.16,80.25,66.71,103.85,94.29-125.55,54.76-220.84,173.94-236.77,298.2Z"/><path class="cls-2" d="m2671.99,2396.88c4.48,49.29,19.61,101.26,63.23,121.77,5.28,2.49,10.85,4.48,15.03,8.56,8.66,8.66,7.07,23.9-.2,33.65-7.27,9.86-17.72,16.83-20.71,18.42-45.5,23.4-102.45,13.64-146.76-12.05-35.15-20.41-64.02-49.49-91-80.05-7.17-7.97-14.14-16.03-21.01-24-129.34-149.85-262.56-307.07-312.24-498.63-30.07-116.2-27.48-238.56-52.57-355.95-25.09-117.29-87.72-237.87-199.23-282.17,9.06-43.21,30.17-111.02,83.34-175.44,30.67-37.14,83.94-101.56,170.06-115.2,55.86-8.96,108.43-5.77,149.85,24.39,141.09,102.75,211.08,188.58,265.75,289.74,74.87,138.6,134.12,317.62,138.4,530,1.39,70.2-3.19,144.17-15.23,221.44-14.24,91.8-31.86,183.5-27.98,276.3.3,6.27.7,12.74,1.29,19.22Z"/><path class="cls-2" d="m2718.39,1879.83c30.37,3.29,53.87,23.2,71.09,48.49,17.23,25.19,25.89,55.26,31.56,85.33,25.69,136.61-16.43,292.93-130.73,371.98-4.98,3.29-11.15,7.17-18.32,11.25"/><circle class="cls-6" cx="2025.8" cy="2013.75" r="59.74"/><circle class="cls-2" cx="1076.22" cy="2014.94" r="64.72"/><path class="cls-2" d="m1883.91,1837.61c64.92-50.88,153.33-56.16,235.78-59.34"/><path class="cls-2" d="m926.57,1817.3c50.48-38.73,115.9-54.66,179.52-53.17,63.52,1.39,125.75,19.12,185,42.22"/><path class="cls-2" d="m1567.49,2112.32c-22.6,22.2-45.8,45.4-57.35,74.87-11.55,29.47-8.26,67.31,16.33,87.32,18.12,14.94,43.61,17.03,67.01,14.94,18.72-1.69,38.13-6.07,52.57-18.12"/><path class="cls-5" d="m2491.47,2487.29c-191.37,275.01-514.07,455.52-879.78,455.52-406.63,0-760-223.23-938.92-551.3"/><path class="cls-5" d="m2259.28,2474.64c-179.32,134.81-403.85,215.07-647.59,215.07-204.71,0-395.88-56.65-558.17-154.63"/><path class="cls-8" d="m600.08,957.77c-10.06,3.66-19.61,4.78-28.67,3.39-9.06-1.4-16.85-5.13-23.39-11.21l32.34-29.74c3.61,3.16,7.95,4.43,13.01,3.79,5.07-.63,9.84-3,14.3-7.11,4.09-3.75,6.54-7.41,7.39-10.98.84-3.57.13-6.56-2.09-8.98-2.67-2.91-6.25-3.59-10.72-2.05-4.48,1.54-11.06,4.75-19.76,9.62-9.21,5.34-17.24,9.42-24.06,12.23-6.84,2.82-13.97,3.9-21.4,3.24-7.43-.66-14.31-4.44-20.67-11.34-5.34-5.82-8.54-12.67-9.55-20.57-1.03-7.9.46-16.25,4.46-25.09,4.01-8.83,10.54-17.4,19.6-25.74,13.39-12.31,26.85-18.86,40.36-19.67,13.51-.79,25.63,3.49,36.36,12.85l-30.22,27.8c-3.75-3.04-7.92-4.34-12.57-3.87-4.64.46-9.19,2.75-13.66,6.85-3.82,3.52-6.12,6.92-6.87,10.19-.76,3.28-.03,6.12,2.19,8.54,2.69,2.9,6.31,3.59,10.89,2.05,4.6-1.54,11-4.75,19.22-9.63,9.7-5.34,17.89-9.35,24.6-12.05,6.7-2.69,13.85-3.68,21.46-2.96,7.6.72,14.7,4.54,21.3,11.44,5.46,5.94,8.58,12.86,9.36,20.75.79,7.9-.88,16.19-5,24.89-4.12,8.71-10.51,17.05-19.18,25.03-9.31,8.57-18.98,14.68-29.04,18.33Z"/><path class="cls-8" d="m765.91,695.63c-.48-12.08,2.04-23.04,7.57-32.89,5.52-9.84,13.45-17.75,23.8-23.74,8.85-5.11,17.61-7.89,26.25-8.33,8.66-.43,16.39,1.09,23.21,4.57l-9.76-16.89,38.49-22.23,68.92,119.3-38.48,22.24-9.76-16.89c-.54,7.72-3.16,15.23-7.87,22.51-4.7,7.28-11.48,13.48-20.33,18.59-10.21,5.9-20.97,8.74-32.3,8.54-11.33-.2-22.12-3.57-32.39-10.09-10.27-6.51-18.95-15.9-26.03-28.16-7.09-12.26-10.87-24.43-11.34-36.51Zm85.07-34.61c-8.37-2.19-16.39-1.08-24.04,3.34-7.64,4.43-12.64,10.78-14.95,19.05-2.31,8.28-.85,16.98,4.43,26.1,5.27,9.13,12.1,14.82,20.52,17.09,8.42,2.27,16.45,1.19,24.1-3.23,7.66-4.42,12.61-10.81,14.89-19.16,2.28-8.35.79-17.09-4.49-26.21-5.27-9.12-12.09-14.78-20.46-16.98Z"/><path class="cls-8" d="m1185.36,582.04l11.12,34.04-21.49,7.02c-15.33,5.01-28.43,5.36-39.33,1.03-10.89-4.32-18.97-14.54-24.24-30.65l-17.03-52.11-16.79,5.49-10.89-33.33,16.79-5.49-10.43-31.92,42.25-13.81,10.43,31.92,27.67-9.04,10.89,33.33-27.67,9.04,17.18,52.58c1.28,3.91,3.19,6.4,5.73,7.48,2.54,1.08,6.12.86,10.73-.65l15.07-4.93Z"/><path class="cls-8" d="m1401.63,565.36c-11.92-4.46-21.72-11.65-29.36-21.56-7.64-9.91-12.27-21.98-13.86-36.21-1.57-14.07.31-26.83,5.66-38.28,5.34-11.45,13.39-20.67,24.1-27.67,10.73-6.99,23.15-11.28,37.27-12.86,14.12-1.58,27.19-.14,39.19,4.31,12.01,4.45,21.88,11.67,29.63,21.66,7.75,9.98,12.4,22.01,13.98,36.07,1.57,14.07-.36,26.84-5.79,38.3-5.43,11.45-13.55,20.69-24.36,27.7-10.82,7.01-23.28,11.3-37.4,12.88-14.12,1.58-27.15.14-39.06-4.33Zm55.58-43.24c5.28-6.55,7.3-15.31,6.07-26.27-1.22-10.96-5.06-19.07-11.48-24.31-6.43-5.24-13.86-7.4-22.3-6.45-8.61.96-15.43,4.67-20.48,11.11-5.03,6.45-6.92,15.23-5.67,26.35,1.22,10.96,4.97,19.07,11.22,24.34,6.25,5.26,13.6,7.42,22.04,6.48,8.43-.95,15.3-4.69,20.58-11.25Z"/><path class="cls-8" d="m1793.88,436.12c7.22,4.8,12.52,10.63,15.94,17.48l2.21-19.38,44.16,5.03-15.57,136.66c-1.45,12.59-5.37,23.7-11.78,33.33-6.43,9.62-15.36,16.85-26.8,21.68-11.45,4.82-25.18,6.32-41.19,4.5-21.36-2.43-38.12-9.19-50.28-20.27-12.16-11.07-18.27-24.9-18.3-41.48l43.65,4.97c.78,5.4,3.58,9.89,8.4,13.51,4.82,3.61,11.01,5.85,18.6,6.72,9.12,1.04,16.67-.63,22.67-5,5.98-4.37,9.61-12.04,10.87-23l2.19-19.38c-5.03,5.89-11.55,10.41-19.58,13.55-8.04,3.15-17.13,4.13-27.3,2.98-11.88-1.35-22.31-5.48-31.28-12.39-8.98-6.9-15.66-16.03-20.03-27.38-4.39-11.35-5.78-24.06-4.16-38.12,1.6-14.07,5.81-26.1,12.61-36.09,6.81-9.99,15.36-17.3,25.66-21.93,10.28-4.63,21.37-6.26,33.25-4.91,10.16,1.16,18.85,4.13,26.06,8.93Zm4,40.72c-5.42-6.75-12.52-10.63-21.31-11.63-8.78-1-16.57,1.14-23.36,6.41-6.79,5.28-10.78,13.15-11.97,23.62-1.19,10.47.91,19.11,6.33,25.95,5.42,6.83,12.51,10.75,21.3,11.75,8.78,1,16.57-1.18,23.37-6.54,6.79-5.35,10.79-13.27,11.98-23.74,1.19-10.46-.93-19.07-6.34-25.82Z"/><path class="cls-8" d="m2053.86,622.59c-8.76-9.23-14.4-19.98-16.92-32.24-2.54-12.26-1.4-25.14,3.4-38.63,4.75-13.34,12.03-23.98,21.86-31.93,9.81-7.94,21.07-12.72,33.79-14.31,12.7-1.59,25.74,0,39.13,4.76,13.39,4.77,24.51,11.79,33.34,21.05,8.84,9.27,14.55,20.08,17.13,32.45,2.6,12.37,1.51,25.22-3.24,38.56-4.75,13.34-12.07,23.97-21.98,31.89-9.89,7.92-21.24,12.66-34.03,14.22-12.79,1.56-25.88-.04-39.27-4.81-13.39-4.77-24.46-11.77-33.22-21.01Zm68.91-14.51c7.63-3.57,13.28-10.56,16.98-20.95,3.7-10.39,3.81-19.36.33-26.89-3.48-7.53-9.22-12.72-17.21-15.57-8.16-2.91-15.92-2.57-23.27,1.02-7.36,3.59-12.91,10.65-16.66,21.19-3.7,10.39-3.9,19.33-.58,26.8,3.31,7.47,8.98,12.63,16.98,15.48,7.98,2.84,15.81,2.48,23.42-1.1Z"/><path class="cls-8" d="m2520.4,710.72l-185.77,122.75-40.36-25.65,65.68-41.35,21.57-143.98,41.91,26.63-17.91,90.72,74.29-54.9,40.58,25.78Z"/><path class="cls-8" d="m2656.75,862.27c11.57-3.51,22.82-3.83,33.73-.97,10.92,2.87,20.58,8.55,28.98,17.06,7.18,7.28,12.06,15.05,14.67,23.31,2.6,8.26,3.07,16.13,1.43,23.6l13.88-13.7,31.22,31.64-98.08,96.77-31.21-31.64,13.88-13.7c-7.61,1.43-15.54.78-23.76-1.93-8.24-2.72-15.94-7.71-23.12-14.98-8.27-8.39-13.75-18.09-16.4-29.1-2.66-11.01-2.12-22.3,1.6-33.89,3.73-11.58,10.63-22.35,20.7-32.29,10.07-9.95,20.91-16.67,32.48-20.18Zm54.94,73.6c.01-8.65-3.09-16.13-9.3-22.42-6.19-6.29-13.61-9.51-22.21-9.68-8.6-.16-16.64,3.47-24.13,10.87-7.51,7.4-11.3,15.45-11.37,24.17-.07,8.72,3,16.22,9.21,22.51,6.21,6.29,13.64,9.49,22.3,9.59,8.64.1,16.73-3.54,24.22-10.95,7.51-7.4,11.27-15.43,11.28-24.09Z"/><text class="cls-12" transform="translate(550.03 3404.61)"><tspan class="cls-9" x="0" y="0">さ</tspan><tspan class="cls-10" x="546.86" y="0">と</tspan><tspan class="cls-11" x="1109.62" y="0">ご</tspan><tspan x="1704.17" y="-30.57">や</tspan></text></g></svg>