<svg xmlns="http://www.w3.org/2000/svg" width="413.696" height="312.546" viewBox="0 0 413.696 312.546"><defs><style>.a{fill:#fff;}.b{fill:#fcdc4a;}.c{fill:#211715;}</style></defs><path class="a" d="M205.38,75.665c-72.54,41.87-141.29,81.55-203.4,117.41,63.48,36.65,142.4,82.22,203.41,117.46,61.02-35.25,140.01-80.85,203.41-117.46C346.682,157.206,277.945,117.538,205.38,75.665Z"></path><path class="a" d="M26.223,187.586,25.151,172.9c0-5.822,8.175-10.542,18.259-10.542s18.259,4.72,18.259,10.542L60.8,187.412c0,5.822-7.307,10.541-17.391,10.541S26.223,193.408,26.223,187.586Z"></path><path class="a" d="M244.575,95.473c0-12.321,0-47.547,0-47.547l-39.4-22.481a2.229,2.229,0,0,0-2.221.006L100.746,84.467v50.851a1.108,1.108,0,0,0,.554.963l39.933,23.055a1.1,1.1,0,0,0,1.107,0L244.022,100.63a1.108,1.108,0,0,0,.553-.964Z"></path><path class="a" d="M176.812,76.812,145.743,94.75a.483.483,0,0,1-.485,0L124.075,82.52a.485.485,0,0,1,0-.841l31.069-17.937a.483.483,0,0,1,.485,0l21.183,12.23A.484.484,0,0,1,176.812,76.812Z"></path><path class="a" d="M354.563,193.906l-13.418,7.746a9.1,9.1,0,0,1-9.1-.008c-33.15-19.146-63.183-36.479-96.22-55.547a8.166,8.166,0,0,1-4.091-7.068c0-4.036,0-10.276,0-17.161a9.159,9.159,0,0,1,4.576-7.931l41.87-24.168,1.489-.818c.276-2.135.558-4.3.835-6.409a9.119,9.119,0,0,1,13.6-6.712c15.6,9.014,39.01,22.527,39.01,22.527l44.851,25.895a9.12,9.12,0,0,1,4.526,8.739c-1.331,14.41-3.034,33.723-3.8,42.519a9.058,9.058,0,0,1-4.5,7.065Z"></path><path class="a" d="M236.829,219.57a1.566,1.566,0,0,0,1.582,0c5.8-3.352,40.418-23.36,49.923-28.852a1.576,1.576,0,0,0,.632-.687l.158.017V207.07l-1.123.648c-1.165.672-49.4,28.547-50.877,29.4l-73.511-42.45V177.29Z"></path><polygon class="a" points="105.211 175.841 189.193 224.328 189.193 280.77 105.211 232.283 105.211 175.841"></polygon><path class="b" d="M37.87,171.631c-1.962-8.456-4.61-23.26-7.1-32.324a16.638,16.638,0,0,1,11.844,6.18c2-7.6,4.513-12.51,9.327-19.67.768,1.313.675,3.147.544,4.832-.934,12.05-2.437,28.948-3.757,40.982" style="fill: rgb(80, 55, 48);"></path><path class="b" d="M223.008,50.142,195.1,66.26a2.43,2.43,0,0,1-2.427,0l-18.03-10.409a1.943,1.943,0,0,1,0-3.364L202.551,36.37a2.427,2.427,0,0,1,2.428,0l18.029,10.409A1.941,1.941,0,0,1,223.008,50.142Z" style="fill: rgb(80, 55, 48);"></path><path class="b" d="M163.285,177.1l73.544,42.469a1.566,1.566,0,0,0,1.582,0l49.923-28.852a1.592,1.592,0,0,0,0-2.762c-12.863-7.431-63.568-36.711-73.544-42.472a1.558,1.558,0,0,0-1.578,0l-49.931,28.851A1.6,1.6,0,0,0,163.285,177.1Z" style="fill: rgb(80, 55, 48);"></path><path class="b" d="M65.156,99.868a.9.9,0,0,1-1.752.022c-.991-3.819-2.529-8.382-4.865-11.1-2.85-3.318-6.968-4.727-10.785-5.547a.9.9,0,0,1,0-1.763c3.78-.8,7.947-2.212,10.718-5.2,2.638-2.847,4.127-8.576,4.961-12.463a.9.9,0,0,1,1.761-.021c.929,3.888,2.582,9.632,5.225,12.484,2.743,2.96,6.709,4.373,10.373,5.178a.9.9,0,0,1-.014,1.764c-3.913.784-8.2,2.128-11.051,5.444C67.4,91.381,66.054,96.015,65.156,99.868Z" style="fill: rgb(80, 55, 48);"></path><path class="b" d="M276.267,38.757a.9.9,0,0,1-1.752.022c-.991-3.819-2.529-8.382-4.865-11.1-2.85-3.318-6.968-4.727-10.785-5.547a.9.9,0,0,1,0-1.763c3.78-.8,7.947-2.212,10.718-5.2,2.638-2.847,4.127-8.576,4.961-12.463a.9.9,0,0,1,1.762-.021c.928,3.887,2.581,9.632,5.224,12.484,2.743,2.96,6.709,4.373,10.373,5.178a.9.9,0,0,1-.014,1.764c-3.913.784-8.2,2.128-11.051,5.444C278.507,30.27,277.165,34.9,276.267,38.757Z" style="fill: rgb(80, 55, 48);"></path><path class="b" d="M395.378,115.077a.9.9,0,0,1-1.752.022c-.991-3.82-2.529-8.383-4.865-11.1-2.85-3.318-6.968-4.727-10.785-5.547a.9.9,0,0,1,0-1.763c3.78-.8,7.947-2.212,10.718-5.2,2.638-2.846,4.127-8.575,4.961-12.462A.9.9,0,0,1,395.421,79c.928,3.887,2.581,9.632,5.224,12.483,2.743,2.961,6.709,4.374,10.373,5.179A.9.9,0,0,1,411,98.427c-3.913.784-8.2,2.127-11.051,5.444C397.618,106.59,396.276,111.224,395.378,115.077Z" style="fill: rgb(80, 55, 48);"></path><path class="c" d="M206.4,312.262l37.549-21.688,40.161-23.192,41.273-23.831,40.887-23.608L405.1,197.524l4.713-2.722c2.229-1.287.217-4.745-2.019-3.454q-19.335,11.166-38.67,22.329L328.381,237.2,287.075,261.05q-20.189,11.656-40.376,23.316-18.888,10.908-37.777,21.819l-4.542,2.623c-2.228,1.288-.216,4.745,2.019,3.454Z"></path><path class="c" d="M255.022,101.994q-4.722-2.721-9.44-5.45A2,2,0,0,0,243.563,100q4.718,2.731,9.44,5.45a2,2,0,1,0,2.019-3.454Z"></path><path class="c" d="M409.812,191.344q-15.066-8.692-30.13-17.39c-2.233-1.289-4.249,2.166-2.019,3.454q15.065,8.7,30.13,17.39c2.234,1.289,4.251-2.166,2.019-3.454Z"></path><path class="c" d="M.97,194.8Q20.359,206,39.746,217.19l40.629,23.459,41.18,23.779,40.439,23.353,37.837,21.853,4.549,2.628c2.234,1.29,4.25-2.165,2.019-3.454L168.79,287.086l-40.032-23.118L87.614,240.209,46.645,216.554,7.717,194.078l-4.728-2.73C.756,190.059-1.261,193.514.97,194.8Z"></path><path class="c" d="M99.933,134.214q-24.143,13.933-48.28,27.88c-2.228,1.287-.216,4.745,2.019,3.454q24.138-13.944,48.28-27.88c2.229-1.286.217-4.744-2.019-3.454Z"></path><path class="c" d="M24.613,177.694q-11.818,6.828-23.64,13.65c-2.228,1.287-.216,4.744,2.019,3.454q11.821-6.822,23.64-13.65c2.229-1.287.217-4.745-2.019-3.454Z"></path><path class="c" d="M49.091,164.92c3.74.805,9.55,2.729,10.487,7.086.383,1.78-.087,3.931-.194,5.719l-.505,8.422c-.132,2.192-.381,3.824-2.081,5.5-2.994,2.953-7.618,4.038-11.685,4.259-4.518.245-9.445-.345-13.327-2.841a7.145,7.145,0,0,1-3.587-5.809c-.151-2.42-.353-4.839-.529-7.257-.171-2.351-.478-4.735-.517-7.092-.074-4.488,5.977-6.817,9.452-7.727,2.488-.652,1.433-4.512-1.064-3.857-4.765,1.248-10.069,3.855-11.89,8.776-.862,2.33-.341,4.956-.166,7.363l.667,9.153a21.6,21.6,0,0,0,.3,2.974,10.268,10.268,0,0,0,2.89,5.014c3.536,3.494,8.731,4.869,13.549,5.25,5.351.424,11.217-.363,15.877-3.182,3.441-2.081,5.842-5.219,6.042-9.309.121-2.486.3-4.969.447-7.453.162-2.71.72-5.7.288-8.4-.98-6.136-8.017-9.289-13.386-10.444-2.51-.541-3.583,3.314-1.064,3.857Z"></path><path class="c" d="M43.449,150.632a64.911,64.911,0,0,1,3.763-12.547,73.62,73.62,0,0,1,6.452-11.259H50.211c.771,1.5.284,3.655.158,5.263q-.21,2.67-.431,5.339-.479,5.8-1,11.591c-.675,7.543-1.391,15.083-2.215,22.612a2.013,2.013,0,0,0,2,2,2.047,2.047,0,0,0,2-2c.855-7.811,1.594-15.635,2.291-23.461q.531-5.958,1.02-11.921.215-2.622.419-5.244a11.157,11.157,0,0,0-.79-6.2,2.021,2.021,0,0,0-3.453,0,72.518,72.518,0,0,0-6.587,11.567,70.284,70.284,0,0,0-4.032,13.194c-.539,2.51,3.316,3.583,3.857,1.064Z"></path><path class="c" d="M53.471,176.7a22.622,22.622,0,0,1-20.123,0c-2.272-1.208-4.295,2.243-2.019,3.454a26.784,26.784,0,0,0,24.16,0c2.274-1.209.256-4.663-2.018-3.454Z"></path><path class="c" d="M39.8,171.1c-2.483-10.746-4.193-21.678-7.1-32.324l-1.929,2.532a14.569,14.569,0,0,1,8.713,3.786c1.912,1.714,4.75-1.106,2.828-2.828a19.008,19.008,0,0,0-11.541-4.958,2.016,2.016,0,0,0-1.928,2.532c2.911,10.646,4.621,21.578,7.1,32.323.579,2.507,4.437,1.446,3.857-1.063Z"></path><path class="c" d="M139.786,118.842v40.643c0,2.574,4,2.578,4,0V118.842c0-2.574-4-2.578-4,0Z"></path><path class="c" d="M246.575,95.473q0-21.493,0-42.986,0-2.28,0-4.561a2.006,2.006,0,0,0-.991-1.726l-38.35-21.884c-1.742-.994-3.442-1.573-5.4-.525-.808.432-1.592.919-2.385,1.377l-12.656,7.308-42.97,24.81L102.578,81.1c-1.412.815-3.736,1.628-3.832,3.461-.048.928,0,1.873,0,2.8v33.393c0,4.8-.2,9.645,0,14.44.108,2.565,2.773,3.521,4.706,4.637l8.809,5.086L133.6,157.24c2.11,1.218,4.194,2.507,6.34,3.66s3.7-.007,5.5-1.045l29.609-17.094L216.6,118.774,244,102.953a7.863,7.863,0,0,0,1.67-1.088c1.464-1.464.907-4.562.907-6.392,0-2.574-4-2.578-4,0v3.2a5.918,5.918,0,0,0,0,.765c.049.361-.119.094-.048,0l.718-.718a24.191,24.191,0,0,1-2.7,1.6l-4.341,2.506-12.858,7.424-35.292,20.376L154.7,149.892,144.2,155.95l-1.573.908a4.957,4.957,0,0,0-1.134.655c-.31.349.716.175.613.019-.06-.09-.305-.176-.394-.227l-1.024-.592-2.888-1.667-33.762-19.492a17.748,17.748,0,0,1-1.964-1.178l.718.717c.073.1-.1.355-.049-.025a6.312,6.312,0,0,0,0-.8v-49.8l-.99,1.726L131.6,68.962l36.8-21.248,28.578-16.5,6.451-3.724c.361-.209.487-.345.873-.242a6.112,6.112,0,0,1,1.193.682l2.273,1.3,32.785,18.709,3.013,1.719-.99-1.727q-.024,18.3,0,36.608V95.473C242.575,98.046,246.575,98.051,246.575,95.473Z"></path><path class="c" d="M233.721,53.478l-31.48,18.177-33.262,19.2-23.4,13.513-3.01,1.738c-.721.417-.818.294-1.5-.1l-8.347-4.819c-6.478-3.741-12.91-7.576-19.44-11.225-.135-.075-.268-.154-.4-.232-2.234-1.289-4.25,2.166-2.019,3.454l17.352,10.019,9.766,5.639c.594.343,1.179.717,1.787,1.032,2.089,1.083,3.817.26,5.63-.787l21.144-12.208,32.824-18.952,32.917-19.006,3.458-2c2.229-1.287.217-4.744-2.019-3.454Z"></path><path class="c" d="M222,48.415,201.464,60.273l-5.248,3.03-1.631.941c-.171.1-.519.4-.723.418.108-.009-.3-.2-.439-.276l-1.851-1.069-6.249-3.607-6.448-3.723a31.537,31.537,0,0,0-3.214-1.856c-.054-.023,0,.08-.013.083.049-.014.088-.061.136-.079a7.007,7.007,0,0,0,1.027-.592l4.507-2.6,13.273-7.664,5.742-3.315c1.052-.608,2.1-1.358,3.215-1.857.266-.119.174-.119.247-.108a4.744,4.744,0,0,1,1.207.7l5.511,3.181c3.72,2.148,7.421,4.336,11.164,6.446a3.37,3.37,0,0,0,.308.178c.07.03-.009-.067.014-.083-2.111,1.446-.112,4.914,2.019,3.454a4,4,0,0,0,1.215-5.689,5.17,5.17,0,0,0-1.75-1.437l-5.121-2.956c-4.075-2.353-8.12-4.769-12.229-7.061a4.576,4.576,0,0,0-4.818.048L197.3,37.09l-13.95,8.055c-3.185,1.839-6.439,3.595-9.571,5.526a4,4,0,0,0-.1,6.937c1.285.816,2.649,1.529,3.967,2.29L190.8,67.489c1.659.958,3.234,1.593,5.142.593,1.055-.553,2.072-1.2,3.1-1.792l24.377-14.075.6-.346C226.246,50.582,224.234,47.124,222,48.415Z"></path><path class="c" d="M175.8,75.086,148.581,90.8,145.8,92.408l-.788.455c-.218.126-.452.133-.042.024h1.063c.514.137-.118-.068-.343-.2l-1.5-.867-5.005-2.889-11.449-6.61-1.907-1.1a5.967,5.967,0,0,0-.537-.309c-.2-.089-.25-.261.018.01l.514.883-.06-.237v1.064l.06-.237-.514.883c-.268.27-.22.1-.009,0a6.6,6.6,0,0,0,.61-.352l2.244-1.3,7.374-4.258,16.781-9.688,2.781-1.606.788-.455c.218-.126.452-.134.042-.024h-1.063c-.514-.137.118.067.343.2l1.5.867,5.005,2.889,11.449,6.61,1.908,1.1a5.816,5.816,0,0,0,.536.309c.2.088.251.261-.018-.01l-.514-.883.06.237V75.86l-.06.237.514-.883-.182.184c-1.813,1.832,1.014,4.662,2.828,2.829a2.542,2.542,0,0,0-.586-4.087c-.511-.321-1.049-.606-1.572-.908l-6.69-3.862c-4.163-2.4-8.273-4.952-12.511-7.223-1.374-.737-2.441-.3-3.634.388L148.447,65.3,133.3,74.042c-3.354,1.937-6.826,3.751-10.095,5.829a2.53,2.53,0,0,0-.728,3.88,5.361,5.361,0,0,0,1.328.924l5.734,3.311,13.737,7.931c1.239.715,2.342,1.169,3.752.4,1.281-.7,2.531-1.461,3.794-2.19L177.21,78.892l.612-.353C180.05,77.253,178.038,73.8,175.8,75.086Z"></path><ellipse class="c" cx="155.898" cy="74.283" rx="6.311" ry="3.644"></ellipse><ellipse class="c" cx="142.618" cy="81.95" rx="6.311" ry="3.644"></ellipse><path class="c" d="M277.188,118.91q30.159,17.418,60.321,34.834,8.441,4.874,16.883,9.744c2.233,1.289,4.25-2.166,2.019-3.453q-29.925-17.268-59.841-34.551l-17.363-10.028c-2.234-1.29-4.25,2.166-2.019,3.454Z"></path><path class="c" d="M267.424,118.493,253.2,126.7c-1.96,1.132-3.964,2.209-5.888,3.4a4.6,4.6,0,0,0-2.255,5.055c.523,2.018,2.206,2.858,3.854,3.81L295.9,166.1l27.124,15.661c2.233,1.289,4.25-2.166,2.018-3.454q-24.549-14.172-49.094-28.349l-21.5-12.414-3.677-2.123c-.589-.341-2.449-.973-1.584-1.786a7.64,7.64,0,0,1,1.38-.8l3.3-1.907,15.567-8.989c2.228-1.287.217-4.745-2.019-3.454Z"></path><path class="c" d="M277.172,88.042l-21.906,12.645-14.48,8.357c-2.659,1.536-6.11,3.007-8.175,5.349-3.738,4.24-2.877,9.957-2.877,15.2v7.245a14.763,14.763,0,0,0,1.045,6.661c1.133,2.38,3.111,3.795,5.328,5.074l7.9,4.56,15.744,9.087q31.142,17.973,62.278,35.953l8.143,4.7a12.158,12.158,0,0,0,7.713,1.9A16.542,16.542,0,0,0,344.2,202.2l5.6-3.234,24.569-14.185a12.42,12.42,0,0,0,4.931-4.637,14.539,14.539,0,0,0,1.509-6.064q.533-6.066,1.069-12.132.653-7.355,1.313-14.708.346-3.85.7-7.7c.219-2.405.609-4.861.638-7.276a11.3,11.3,0,0,0-5.6-9.764c-.789-.472-1.593-.92-2.389-1.379L364.3,114.053,336.358,97.92,312.536,84.165,300.528,77.23c-3.621-2.092-7.31-4.935-11.713-4.6a11.239,11.239,0,0,0-9.55,6.889c-.962,2.341-1.024,5.029-1.347,7.515q-.529,4.079-1.047,8.158c-.5,3.977-1.019,7.954-1.438,11.941a2.013,2.013,0,0,0,2,2,2.045,2.045,0,0,0,2-2c.411-3.916.917-7.824,1.411-11.731q.515-4.071,1.045-8.142c.279-2.149.27-4.641,1.231-6.624a7.2,7.2,0,0,1,8.212-3.807c1.852.49,3.528,1.746,5.173,2.7q2.9,1.677,5.806,3.353l29.96,17.3,22.261,12.853c7.42,4.283,14.87,8.52,22.262,12.852a7.336,7.336,0,0,1,3.7,7.107c-.357,4.753-.869,9.5-1.3,14.245q-1.178,13.1-2.325,26.2a10.913,10.913,0,0,1-1.2,5c-1.107,1.815-2.966,2.689-4.743,3.716l-11.7,6.755q-6.034,3.484-12.07,6.968l-5.24,3.026c-1.9,1.095-3.653,2.134-5.937,1.948-2.628-.213-5.016-2.136-7.233-3.416L321.075,193l-15.1-8.72L276.047,167l-30.234-17.45-7.688-4.438c-1.922-1.109-3.565-2.23-4.178-4.488-.5-1.849-.213-4.032-.213-5.933v-7.577c0-2.459-.4-5.269.406-7.633a7.229,7.229,0,0,1,3.194-3.828c.674-.4,1.361-.786,2.041-1.178l11.676-6.74,26.468-15.277,1.671-.965c2.229-1.286.217-4.744-2.018-3.454Z"></path><path class="c" d="M365.519,142.569c-.328,3.4-.573,6.881-1.166,10.242a4.387,4.387,0,0,1-2.525,3.1l-8.9,5.141c-6.377,3.682-12.868,7.217-19.152,11.056a7.881,7.881,0,0,0-2.991,3.115c-1.054,2.089-.852,4.382-.852,6.651v9.216c0,2.574,4,2.578,4,0v-7.54c0-2.7-.809-6.353,1.885-8,2.291-1.4,4.661-2.691,6.988-4.034l21.118-12.192a8.344,8.344,0,0,0,4.144-4.836,36.947,36.947,0,0,0,.816-6.075c.227-1.947.451-3.9.639-5.847a2.014,2.014,0,0,0-2-2,2.044,2.044,0,0,0-2,2Z"></path><path class="c" d="M162.6,196.4q12.4,7.161,24.807,14.325l38.478,22.22,10.227,5.905a2.022,2.022,0,0,0,2.019,0q8.789-5.075,17.573-10.156l26.73-15.448,6.573-3.8c2.229-1.287.217-4.745-2.019-3.454q-8.676,5.01-17.348,10.026L242.85,231.5q-3.368,1.947-6.735,3.892h2.019l-25.659-14.816-38.241-22.083-9.612-5.551c-2.233-1.289-4.25,2.166-2.019,3.454Z"></path><path class="c" d="M287.124,190.048v29.067c0,2.573,4,2.578,4,0V190.048c0-2.574-4-2.578-4,0Z"></path><path class="c" d="M160.613,177.29v29.067c0,2.574,4,2.578,4,0V177.29c0-2.574-4-2.578-4,0Z"></path><path class="c" d="M234.857,219.57v29.067c0,2.573,4,2.578,4,0V219.57c0-2.574-4-2.578-4,0Z"></path><path class="c" d="M162.275,178.828l22.52,13L215.569,209.6l12.638,7.3c2.476,1.43,4.919,2.973,7.451,4.3,2.22,1.166,3.9.012,5.781-1.073L246.5,217.2l14.514-8.388,27.764-16.046a3.912,3.912,0,0,0,2.329-3.7c-.108-1.615-1.228-2.529-2.519-3.275l-4.468-2.581-12.747-7.362L239.56,157.478l-23.118-13.35a4.175,4.175,0,0,0-4.24-.369c-.5.247-.977.564-1.459.843q-2.362,1.363-4.723,2.729L191.9,155.489l-28.32,16.363a6.338,6.338,0,0,0-2.626,2.08,3.69,3.69,0,0,0,1.32,4.9c2.11,1.484,4.111-1.982,2.019-3.454.532.374-.352.866.363.477.367-.2.725-.419,1.087-.628l2.345-1.355,6-3.464,14.987-8.659L213.552,147.6a3.422,3.422,0,0,1,.6-.344c-.381.119-.116.1.227.3l1.672.966,4.4,2.538,12.225,7.06L263.2,175.752q11.775,6.8,23.549,13.6a1.568,1.568,0,0,0,.4.233c.315.051-.019.074-.024-.249-.006-.385.37-.344-.052-.206a3.1,3.1,0,0,0-.516.3l-2.193,1.267-5.77,3.335-14.848,8.581L238.48,217.219c-.224.13-.466.246-.679.393a2.348,2.348,0,0,1-.287.166c.01,0,.339.117.163-.028a8.843,8.843,0,0,0-1.222-.706l-3.561-2.056-10.815-6.245L192.89,191.887,167.855,177.43l-3.561-2.056C162.061,174.084,160.044,177.539,162.275,178.828Z"></path><path class="c" d="M106.074,178.65l8.132,4.694,19.516,11.268,23.589,13.619,20.344,11.746c3.247,1.874,6.447,3.918,9.777,5.644a2.685,2.685,0,0,1,.388.274l-.718-.717s.139-.239.091.023a2.9,2.9,0,0,0,0,.5V278.07a1.621,1.621,0,0,0,0,.44c.008.024-.011.061,0,.084.173.364,1.353-.311,1.133-.634-.072-.106-.322-.174-.425-.245-2.413-1.666-5.166-2.983-7.7-4.448l-14.68-8.475-36.45-21.045c-7.3-4.214-14.734-8.259-21.924-12.658a5.556,5.556,0,0,1-.56-.373l.717.718c.007.009-.124.173-.09-.209.03-.346,0-.709,0-1.056v-50.4c0-.436.042-.895,0-1.329a1.732,1.732,0,0,0,0-.322c-.008-.024.01-.062,0-.085,0,0,0-.014,0-.019v0q0-.656-1.137.644a2.068,2.068,0,0,0,2.737-.718,2.014,2.014,0,0,0-.718-2.736c-2.326-.994-4.739.2-4.882,2.863-.02.361,0,.728,0,1.09V230.5c0,1.565.164,2.946,1.683,3.914,2.1,1.34,4.34,2.506,6.5,3.752l14.4,8.313,37.216,21.487c7.652,4.417,15.23,9.009,22.974,13.264,2.3,1.261,5.079.178,5.212-2.673.055-1.178,0-2.372,0-3.55V235.872c0-3.583.179-7.218,0-10.8-.138-2.756-3.677-4.024-5.743-5.216l-12.841-7.414-36.868-21.286-26.3-15.186-1.344-.776C105.86,173.906,103.843,177.361,106.074,178.65Z"></path><path class="c" d="M63.227,99.337l-.04-.035.718-.717a1.8,1.8,0,0,1,1.014.138l.514.882c-.846-2.066-1.246-4.318-2.107-6.4a20.846,20.846,0,0,0-3.508-5.985,16.374,16.374,0,0,0-5.475-3.95,26.635,26.635,0,0,0-3.163-1.212c-.807-.251-2.285-.348-2.871-.787l.717.717a3.977,3.977,0,0,1,0,.74l-.717.717a5.994,5.994,0,0,1,1.456-.382q.847-.214,1.681-.474a27.475,27.475,0,0,0,3.414-1.33,15.448,15.448,0,0,0,5.787-4.5,21.593,21.593,0,0,0,3.037-6.156c.367-1.071.684-2.158.969-3.252.214-.821.3-2.387.747-2.985l-.717.717a1.974,1.974,0,0,1-1-.132l-.514-.883c.791,2.033,1.124,4.275,1.868,6.341a23.42,23.42,0,0,0,3.048,6.146,15.679,15.679,0,0,0,5.456,4.5,25.225,25.225,0,0,0,3.568,1.474q.828.273,1.674.5a5.7,5.7,0,0,1,1.456.4l-.718-.717a4.318,4.318,0,0,1-.009-.737l.717-.718a11.241,11.241,0,0,1-2.687.674,26.487,26.487,0,0,0-3.284,1.158,16.345,16.345,0,0,0-5.681,3.866c-3.071,3.35-4.337,8.068-5.353,12.385-.589,2.5,3.267,3.572,3.857,1.063.872-3.706,1.837-8.093,4.595-10.9a13.317,13.317,0,0,1,4.946-3.075,27.964,27.964,0,0,1,2.891-.874,8.455,8.455,0,0,0,2.735-.838,2.908,2.908,0,0,0-.667-5.087c-1.948-.7-3.963-.995-5.844-1.931a11.866,11.866,0,0,1-4.488-3.552,20.471,20.471,0,0,1-2.484-5.152c-.64-1.833-1.043-3.718-1.6-5.57a2.937,2.937,0,0,0-4.7-1.627c-1.377,1.15-1.447,3.752-1.907,5.4a27.8,27.8,0,0,1-2.038,5.478c-1.892,3.6-5.458,5.364-9.254,6.4-1.909.518-4.293.861-4.206,3.415.086,2.534,2.627,2.736,4.513,3.279a16.582,16.582,0,0,1,5.978,2.9,14.183,14.183,0,0,1,3.88,5.531,34.413,34.413,0,0,1,1.226,3.37,23.336,23.336,0,0,0,1.021,3.351c1.25,2.522,4.495,1.889,5.407-.507a2.015,2.015,0,0,0-1.4-2.46A2.045,2.045,0,0,0,63.227,99.337Z"></path><path class="c" d="M274.338,38.226l-.04-.035.718-.717a1.8,1.8,0,0,1,1.014.137l.514.883c-.846-2.066-1.246-4.318-2.107-6.4a20.846,20.846,0,0,0-3.508-5.985,16.364,16.364,0,0,0-5.475-3.95,26.814,26.814,0,0,0-3.163-1.213c-.807-.25-2.285-.347-2.871-.786l.717.717a3.977,3.977,0,0,1,0,.74l-.717.717a5.994,5.994,0,0,1,1.456-.382c.565-.143,1.126-.3,1.681-.475a27.254,27.254,0,0,0,3.414-1.329,15.44,15.44,0,0,0,5.787-4.5A21.593,21.593,0,0,0,274.8,9.495c.367-1.071.684-2.158.969-3.253.214-.82.305-2.386.747-2.984l-.717.717a1.974,1.974,0,0,1-1-.132l-.514-.883c.791,2.033,1.124,4.275,1.868,6.341a23.435,23.435,0,0,0,3.048,6.146,15.679,15.679,0,0,0,5.456,4.5,25.343,25.343,0,0,0,3.568,1.474q.829.273,1.674.5a5.7,5.7,0,0,1,1.456.4l-.718-.717a4.32,4.32,0,0,1-.009-.737l.717-.718a11.244,11.244,0,0,1-2.686.674,26.487,26.487,0,0,0-3.284,1.158,16.34,16.34,0,0,0-5.682,3.866c-3.071,3.35-4.337,8.068-5.353,12.385-.589,2.5,3.267,3.572,3.858,1.063.871-3.706,1.836-8.093,4.594-10.9a13.317,13.317,0,0,1,4.946-3.075,27.964,27.964,0,0,1,2.891-.874,8.455,8.455,0,0,0,2.735-.838,2.909,2.909,0,0,0-.667-5.088c-1.948-.7-3.962-.994-5.844-1.93a11.866,11.866,0,0,1-4.488-3.552,20.434,20.434,0,0,1-2.483-5.152c-.641-1.833-1.044-3.718-1.6-5.57a2.938,2.938,0,0,0-4.7-1.628c-1.378,1.151-1.448,3.753-1.908,5.4a27.779,27.779,0,0,1-2.037,5.479c-1.893,3.6-5.459,5.364-9.255,6.4-1.909.518-4.293.861-4.206,3.414.086,2.534,2.627,2.737,4.513,3.28a16.582,16.582,0,0,1,5.978,2.9,14.183,14.183,0,0,1,3.88,5.531,34.413,34.413,0,0,1,1.226,3.37,23.464,23.464,0,0,0,1.021,3.351c1.25,2.522,4.5,1.889,5.408-.507a2.016,2.016,0,0,0-1.4-2.46A2.044,2.044,0,0,0,274.338,38.226Z"></path><path class="c" d="M393.45,114.546l-.041-.035.718-.718a1.81,1.81,0,0,1,1.014.138l.514.883c-.846-2.066-1.246-4.319-2.106-6.4a20.871,20.871,0,0,0-3.509-5.985,16.364,16.364,0,0,0-5.475-3.95,26.867,26.867,0,0,0-3.162-1.213c-.808-.25-2.285-.347-2.872-.786l.717.717a3.966,3.966,0,0,1,0,.739l-.717.718a5.994,5.994,0,0,1,1.456-.382c.565-.143,1.126-.3,1.681-.475a27.254,27.254,0,0,0,3.414-1.329,15.433,15.433,0,0,0,5.787-4.5,21.574,21.574,0,0,0,3.037-6.155c.367-1.071.684-2.158.97-3.253.214-.82.305-2.386.746-2.985l-.717.718a1.974,1.974,0,0,1-1-.132l-.514-.883c.791,2.033,1.124,4.274,1.868,6.341a23.451,23.451,0,0,0,3.048,6.146,15.688,15.688,0,0,0,5.456,4.5,25.392,25.392,0,0,0,3.568,1.474q.829.273,1.674.5a5.662,5.662,0,0,1,1.456.4l-.718-.717a4.32,4.32,0,0,1-.009-.737l.717-.718a11.28,11.28,0,0,1-2.686.674,26.165,26.165,0,0,0-3.284,1.158,16.34,16.34,0,0,0-5.682,3.866c-3.071,3.35-4.337,8.068-5.352,12.385-.589,2.5,3.266,3.572,3.857,1.063.872-3.706,1.836-8.093,4.594-10.9a13.317,13.317,0,0,1,4.946-3.075,27.721,27.721,0,0,1,2.891-.874,8.455,8.455,0,0,0,2.735-.838,2.909,2.909,0,0,0-.667-5.088c-1.948-.7-3.962-.994-5.844-1.93a11.865,11.865,0,0,1-4.487-3.552,20.427,20.427,0,0,1-2.484-5.153c-.641-1.832-1.044-3.717-1.6-5.569a2.938,2.938,0,0,0-4.7-1.628c-1.378,1.151-1.448,3.753-1.907,5.4a27.749,27.749,0,0,1-2.038,5.478c-1.892,3.6-5.459,5.365-9.255,6.4-1.909.519-4.292.862-4.206,3.415.086,2.534,2.627,2.737,4.514,3.28a16.569,16.569,0,0,1,5.977,2.9,14.183,14.183,0,0,1,3.88,5.531,34.489,34.489,0,0,1,1.226,3.369,23.438,23.438,0,0,0,1.021,3.352c1.25,2.522,4.5,1.888,5.408-.507a2.016,2.016,0,0,0-1.4-2.46A2.043,2.043,0,0,0,393.45,114.546Z"></path></svg>