<svg xmlns="http://www.w3.org/2000/svg" width="378.979" height="245.134" viewBox="0 0 378.979 245.134"><defs><style>.a{fill:#fff;}.b{fill:#fcdc4a;}.c{fill:#211715;}</style></defs><path class="a" d="M2,243.121H376.979V2.07H2V243.121"></path><rect class="a" x="251.771" y="136.41" width="13.229" height="14.445"></rect><path class="a" d="M183.59,96.456V80.576h9.86v16.83h-9.86Z"></path><path class="a" d="M155.635,29.988a9.448,9.448,0,0,1-3.746-5.107c-.042-.174-.076-.352-.1-.532a5.244,5.244,0,0,1,5.29-5.818H221.9a5.244,5.244,0,0,1,5.29,5.818c-.025.18-.059.358-.1.532-.612,2.559-2.8,4.617-4.886,5.866-9.608,5.746-20.893,7.481-32.715,7.481-11.519,0-23.107-1.735-32.716-7.481C156.394,30.52,156.011,30.266,155.635,29.988Z"></path><path class="a" d="M299.453,53.4c-8.832,0-40.333,0-49.111,0a2.245,2.245,0,0,0-2.249,2.25c0,3.646,0,10.914,0,16.1a3.994,3.994,0,0,0,3.994,4c9.985,0,35.682,0,45.637,0a3.989,3.989,0,0,0,3.99-3.992V55.661A2.258,2.258,0,0,0,299.453,53.4Z"></path><path class="a" d="M214.087,157.527h7.728v47.7a2.452,2.452,0,0,1-2.452,2.452h-2.825a2.451,2.451,0,0,1-2.451-2.452Z"></path><path class="a" d="M310.706,157.527h7.728v47.7a2.451,2.451,0,0,1-2.451,2.452h-2.825a2.452,2.452,0,0,1-2.452-2.452Z"></path><rect class="a" x="208.281" y="150.855" width="110.153" height="8.672"></rect><path class="a" d="M174.519,175.067H157.033v8.153H192.12v-8.153H174.634"></path><path class="a" d="M159.634,183.283c.474,6.044,1.269,14.528,1.984,21.965h25.917c.716-7.437,1.51-15.921,1.984-21.965"></path><path class="a" d="M279.615,167.441c-7.642,0-14.833.045-22.358.045a3.849,3.849,0,0,0-2.686,6.607l.055.053c2.086,2.024,4.31,3.9,6.583,5.706a11.062,11.062,0,0,0,6.895,2.394h36.1c4.931,0,8.843-3.363,10.786-7.9,1.9-4.444,6.557-26.444,7.194-29.728,1.251-6.444-2.2-10.672-8-10.672H295.065c-4.261,0-9.278,2.478-10.05,6.668-1.3,7.07-3.359,18.448-4.612,26.561"></path><path class="b" d="M136.379,88.555H75.261c.006,36.384.006,69.209.006,109.1h61.112V88.556" style="fill: rgb(156, 94, 76);"></path><path class="b" d="M233.139,104.631h50.493a2.939,2.939,0,0,1,2.94,2.939v14.074a17.549,17.549,0,0,1-17.549,17.549H233.139a2.939,2.939,0,0,1-2.94-2.939V107.57A2.939,2.939,0,0,1,233.139,104.631Z" style="fill: rgb(156, 94, 76);"></path><path class="b" d="M203.31,96.456v.95h-9.86V80.576h9.86v15.88Z" style="fill: rgb(156, 94, 76);"></path><path class="b" d="M183.59,96.456v.95h-9.86V80.576h9.86v15.88Z" style="fill: rgb(156, 94, 76);"></path><path class="b" d="M303.611,197.654c-15.72,0-53.711,0-81.8,0v7.569a2.452,2.452,0,0,1-2.452,2.452h-2.825a2.451,2.451,0,0,1-2.451-2.452v-7.569H188.256c-.239,2.561-.484,5.133-.721,7.591H161.618c-.236-2.458-.481-5.03-.721-7.591H75.358c-20.969,13.027-59.942,37.156-73.4,45.465H189.49c44.511,0,78.033,0,114.132-.006,22.383,0,45.758-.009,73.357-.018C363.5,234.774,324.819,210.826,303.611,197.654Z" style="fill: rgb(156, 94, 76);"></path><path class="b" d="M160.144,144.957a13.762,13.762,0,0,1,3.494-6.223c2.129-2.194,3.417-2.872,5.307-3.068a5.4,5.4,0,0,1,3.653.7c1.274.92,1.382,2.457,1.2,3.9-.253,2.066-1.032,3.118-2.944,4.728C168.43,147.035,162.925,148.262,160.144,144.957Z" style="fill: rgb(156, 94, 76);"></path><path class="b" d="M157.4,162.781a13.766,13.766,0,0,1,3.494-6.224c2.129-2.193,3.418-2.872,5.307-3.068a5.406,5.406,0,0,1,3.653.7c1.274.92,1.383,2.456,1.206,3.9-.254,2.065-1.033,3.118-2.945,4.728C165.682,164.859,160.177,166.085,157.4,162.781Z" style="fill: rgb(156, 94, 76);"></path><path class="b" d="M191.678,155.306a13.757,13.757,0,0,0-3.494-6.223c-2.129-2.194-3.418-2.872-5.307-3.069a5.406,5.406,0,0,0-3.653.7c-1.274.92-1.382,2.457-1.206,3.9.254,2.066,1.033,3.118,2.945,4.728C183.392,157.384,188.9,158.611,191.678,155.306Z" style="fill: rgb(156, 94, 76);"></path><path class="c" d="M249.768,139.2v11.66a2.029,2.029,0,0,0,2,2H265a2.03,2.03,0,0,0,2-2V139.2a2,2,0,1,0-4,0v11.66l2-2h-13.23l2,2V139.2a2,2,0,0,0-4,0Z"></path><path class="c" d="M276.156,137.193H236.583a24.951,24.951,0,0,1-3.437,0c-1.422-.2-.947-2.562-.947-3.6v-8.842c0-5.6-.034-11.194,0-16.79.007-1.162.719-1.334,1.7-1.334h48.833c1.054,0,1.833.1,1.84,1.383.028,5.8,0,11.6,0,17.394v1.658c0,2.574,4,2.579,4,0v-16.68c0-.9.028-1.81,0-2.712a5.063,5.063,0,0,0-3.734-4.894,15.448,15.448,0,0,0-3.729-.149H235.433a10.424,10.424,0,0,0-4.295.444c-2.923,1.311-2.939,4.1-2.939,6.784v8.966c0,5.716-.076,11.437,0,17.152a5.117,5.117,0,0,0,5.356,5.216c1.754.016,3.509,0,5.264,0h37.337c2.574,0,2.578-4,0-4Z"></path><path class="c" d="M175.725,95.907V80.577c0-2.574-4-2.578-4,0v15.33c0,2.574,4,2.578,4,0Z"></path><path class="c" d="M203.313,78.577H173.725c-2.573,0-2.578,4,0,4h29.588c2.574,0,2.578-4,0-4Z"></path><path class="c" d="M185.588,96.461V80.871c0-2.574-4-2.578-4,0v15.59c0,2.574,4,2.578,4,0Z"></path><path class="c" d="M195.45,96.461V80.871c0-2.574-4-2.578-4,0v15.59c0,2.574,4,2.578,4,0Z"></path><path class="c" d="M205.313,96.461V80.871c0-2.574-4-2.578-4,0v15.59c0,2.574,4,2.578,4,0Z"></path><path class="c" d="M160.936,99.405H216.1c2.573,0,2.578-4,0-4H160.936c-2.574,0-2.578,4,0,4Z"></path><path class="c" d="M208.936,97.405v6.167a2,2,0,1,0,4,0V97.405a2,2,0,0,0-4,0Z"></path><path class="c" d="M164.1,97.405v6.167a2,2,0,0,0,4,0V97.405a2,2,0,0,0-4,0Z"></path><path class="c" d="M73.267,50.968V197.657c0,2.574,4,2.578,4,0V50.968c0-2.574-4-2.578-4,0Z"></path><path class="c" d="M229.934,199.654q30.72,0,61.439,0h12.339c2.574,0,2.578-4,0-4l-55.713,0H229.934c-2.574,0-2.578,4,0,4Z"></path><path class="c" d="M188.258,199.656H213.6c2.574,0,2.578-4,0-4h-25.34c-2.574,0-2.578,4,0,4Z"></path><path class="c" d="M75.268,199.656H160.9c2.574,0,2.578-4,0-4H75.268c-2.574,0-2.578,4,0,4Z"></path><path class="c" d="M75.267,52.968H303.712c2.574,0,2.578-4,0-4H75.267c-2.573,0-2.578,4,0,4Z"></path><path class="c" d="M2,245.121H376.979a2.029,2.029,0,0,0,2-2V2.07a2.029,2.029,0,0,0-2-2H2a2.029,2.029,0,0,0-2,2V243.121c0,2.573,4,2.578,4,0V2.07l-2,2H376.979l-2-2V243.121l2-2H2c-2.574,0-2.578,4,0,4Z"></path><path class="c" d="M.955,3.8q12.606,8.455,25.262,16.839Q42.54,31.492,58.862,42.346q7.812,5.2,15.618,10.411c2.147,1.434,4.151-2.029,2.019-3.454Q61.628,39.367,46.727,29.477,31.03,19.04,15.336,8.6,9.15,4.477,2.974.343C.83-1.095-1.175,2.369.955,3.8Z"></path><path class="c" d="M3.009,244.824q12.377-7.642,24.742-15.3Q44.077,219.414,60.4,209.3q7.989-4.953,15.974-9.912c2.182-1.355.176-4.817-2.019-3.454q-15.024,9.332-30.06,18.642-15.58,9.653-31.167,19.3-6.067,3.753-12.135,7.5c-2.187,1.35-.18,4.812,2.018,3.454Z"></path><path class="c" d="M376.006.343q-12.663,8.493-25.374,16.913-16.478,10.959-32.955,21.917-7.88,5.244-15.752,10.5c-2.13,1.423-.13,4.889,2.019,3.454q14.94-9.983,29.913-19.92,15.85-10.541,31.7-21.084,6.24-4.156,12.47-8.326c2.127-1.427.127-4.893-2.019-3.454Z"></path><path class="c" d="M311.717,200.329q-3.549-2.2-7.1-4.4a2.019,2.019,0,0,0-2.736.717,2.042,2.042,0,0,0,.717,2.737q3.549,2.2,7.1,4.4a2,2,0,1,0,2.019-3.454Z"></path><path class="c" d="M317,208.313q24.855,15.416,49.728,30.8,4.62,2.856,9.242,5.711c2.2,1.356,4.208-2.1,2.019-3.454q-22.221-13.718-44.412-27.485-7.28-4.51-14.558-9.025c-2.193-1.361-4.2,2.1-2.019,3.454Z"></path><path class="c" d="M134.379,88.556v106.16c0,2.574,4,2.578,4,0V88.556c0-2.574-4-2.578-4,0Z"></path><path class="c" d="M103.823,88.556v106.16c0,2.574,4,2.578,4,0V88.556c0-2.574-4-2.578-4,0Z"></path><path class="c" d="M116.42,143.658v-4.044a2.065,2.065,0,0,0-.585-1.414,2,2,0,0,0-3.415,1.414v4.044a2.068,2.068,0,0,0,.586,1.414,2,2,0,0,0,3.414-1.414Z"></path><path class="c" d="M99.379,143.658q0-2.022,0-4.044a2.065,2.065,0,0,0-.585-1.414,2,2,0,0,0-3.415,1.414q0,2.022,0,4.044a2.067,2.067,0,0,0,.585,1.414,2,2,0,0,0,3.415-1.414Z"></path><path class="c" d="M156.645,28.261c-2.213-1.688-4.631-5.763-.989-7.422a4.944,4.944,0,0,1,2.161-.308h59.736c1.442,0,2.905-.07,4.347,0a3.467,3.467,0,0,1,3.11,2c.619,1.423-.115,3.007-1.018,4.126a14,14,0,0,1-4.454,3.308,43.35,43.35,0,0,1-5.861,2.631c-8.225,2.979-17.045,3.745-25.738,3.624-8.669-.121-17.611-1.237-25.588-4.822a33.089,33.089,0,0,1-5.706-3.135,2.017,2.017,0,0,0-2.737.717,2.045,2.045,0,0,0,.718,2.737,42.76,42.76,0,0,0,13.049,5.824,71.545,71.545,0,0,0,14.075,2.4c9.468.74,19.351.348,28.561-2.1a50.482,50.482,0,0,0,12.538-5.144c3.549-2.082,7.015-5.774,6.274-10.219a7.411,7.411,0,0,0-7.248-5.941c-.54-.014-1.082,0-1.622,0H157.878a9.181,9.181,0,0,0-3.314.448,7.265,7.265,0,0,0-4.044,9.988,12.661,12.661,0,0,0,4.106,4.748A2.012,2.012,0,0,0,157.362,31,2.05,2.05,0,0,0,156.645,28.261Z"></path><path class="c" d="M299.453,51.4l-26.483,0H252.541c-2.291,0-4.732-.087-5.967,2.292-.651,1.255-.481,2.744-.481,4.112q0,2.265,0,4.529c0,3.227-.232,6.55.013,9.768a6.117,6.117,0,0,0,6.273,5.655c2.016.02,4.032,0,6.048,0q16.342,0,32.685,0c2.039,0,4.078.009,6.116,0,3.208-.015,6.038-1.965,6.426-5.311a40.73,40.73,0,0,0,.058-4.663V57.977a9.907,9.907,0,0,0-.382-4.039,4.375,4.375,0,0,0-3.877-2.535c-2.568-.189-2.556,3.812,0,4,.478.035.259,1.4.259,1.939v13.34c0,1.006.1,2.024-.8,2.69a4.315,4.315,0,0,1-2.631.386H290.4q-14.906,0-29.809,0h-6.155c-1.556,0-3.935.4-4.331-1.655a23.347,23.347,0,0,1-.014-4.139q0-2.419,0-4.838V57.33c0-.417-.192-1.437.023-1.8s2.745-.132,3.395-.132h18.824l27.118,0C302.027,55.4,302.031,51.4,299.453,51.4Z"></path><path class="c" d="M254.863,70.733h40.076c2.574,0,2.578-4,0-4H254.863c-2.574,0-2.578,4,0,4Z"></path><path class="c" d="M75.466,90.555h60.913c2.573,0,2.578-4,0-4H75.466c-2.573,0-2.578,4,0,4Z"></path><path class="c" d="M301.712,50.969v70.943c0,2.574,4,2.578,4,0V50.969c0-2.574-4-2.578-4,0Z"></path><path class="c" d="M219.818,159.526v44.941c0,.546.132,1.064-.518,1.209a8.015,8.015,0,0,1-2.694,0c-.367-.082-.445-.184-.518-.538a10.359,10.359,0,0,1,0-1.945V179.764c0-6.625.165-13.272,0-19.9,0-.114,0-.229,0-.343,0-2.574-4-2.578-4,0v43.142c0,.793-.018,1.588,0,2.381a4.568,4.568,0,0,0,4.478,4.627c2.636.109,5.676.135,6.887-2.727a6.825,6.825,0,0,0,.365-2.788V181.006c0-7.031.167-14.083,0-21.112,0-.123,0-.246,0-.368,0-2.574-4-2.578-4,0Z"></path><path class="c" d="M316.438,161.776v42.4a4.492,4.492,0,0,1,0,1.017c-.224.851-2.3.571-3.031.487-1.142-.132-.7-1.761-.7-2.653V180.006c0-2.574-4-2.578-4,0v22.261c0,1.809-.293,3.884.789,5.456,1.421,2.065,3.668,1.953,5.881,1.953,2.712,0,4.926-1.6,5.06-4.47.015-.316,0-.636,0-.953V161.776c0-2.574-4-2.578-4,0Z"></path><path class="c" d="M305.708,196.236v-13.99a2,2,0,0,0-4,0v13.99a2,2,0,0,0,4,0Z"></path><path class="c" d="M210.281,195.65q0-16.239-.012-32.478,0-2.622,0-5.244c0-2.574-4-2.578-4,0q0,16.237.013,32.477,0,2.622,0,5.245c0,2.574,4,2.578,4,0Z"></path><path class="c" d="M281.648,157.526h-73.37l2,2v-8.67l-2,2h74.88c2.574,0,2.578-4,0-4h-74.88a2.029,2.029,0,0,0-2,2v8.67a2.029,2.029,0,0,0,2,2h73.37c2.574,0,2.578-4,0-4Z"></path><path class="c" d="M174.519,173.067H157.033a2.03,2.03,0,0,0-2,2v8.153a2.029,2.029,0,0,0,2,2H192.12a2.029,2.029,0,0,0,2-2v-8.153a2.029,2.029,0,0,0-2-2H174.634c-2.574,0-2.578,4,0,4H192.12l-2-2v8.153l2-2H157.033l2,2v-8.153l-2,2h17.486c2.574,0,2.578-4,0-4Z"></path><path class="c" d="M157.634,183.283c.275,3.489.583,6.974.9,10.459q.254,2.776.516,5.552c.17,1.8,0,4.163.839,5.8,1.468,2.855,5.453,2.154,8.109,2.154h16.378a6.365,6.365,0,0,0,3.3-.513c1.952-1.107,2.015-3.134,2.2-5.125q.309-3.245.609-6.491c.363-3.943.716-7.888,1.027-11.836.2-2.566-3.8-2.553-4,0-.251,3.185-.53,6.368-.819,9.549q-.229,2.535-.467,5.068-.108,1.161-.218,2.323a13.2,13.2,0,0,1-.279,2.892c-.082.231.089.088-.194.133a6.956,6.956,0,0,1-1.041,0H165.473a6.444,6.444,0,0,1-2.023,0c-.034-.017-.014.032-.049-.261-.127-1.072-.205-2.153-.306-3.228q-.263-2.779-.518-5.56c-.333-3.637-.656-7.275-.943-10.916-.2-2.549-4.2-2.57-4,0Z"></path><path class="c" d="M175.989,175.067V154.659c0-2.574-4-2.578-4,0v20.408c0,2.574,4,2.578,4,0Z"></path><path class="c" d="M175.3,153.194q-1.14-4.471-2.29-8.94a2,2,0,1,0-3.857,1.063q1.142,4.471,2.29,8.94a2,2,0,1,0,3.857-1.063Z"></path><path class="c" d="M176.794,150.232a37.939,37.939,0,0,0-3.563,4.354,2.024,2.024,0,0,0-.2,1.541,2.046,2.046,0,0,0,.919,1.2,2.02,2.02,0,0,0,1.542.2l.477-.2a2.008,2.008,0,0,0,.718-.718q.442-.626.911-1.233l-.313.4a34.536,34.536,0,0,1,2.339-2.716,2.079,2.079,0,0,0,.586-1.414,2.032,2.032,0,0,0-.586-1.414,2.01,2.01,0,0,0-1.414-.586,2.047,2.047,0,0,0-1.414.586Z"></path><path class="c" d="M168.461,161.645q.807,1.06,1.576,2.15c.5.714,1.037,1.431,1.471,2.188l-.2-.478.012.055V164.5l-.02.048.919-1.2-.022.01h2.019l-.026-.011.405.313-.019-.022.514.882,0-.023-.919,2.259.02-.014a2.122,2.122,0,0,0,.919-1.2,2.043,2.043,0,0,0-.2-1.541,2,2,0,0,0-2.737-.717l-.02.014a2.117,2.117,0,0,0-.819.956,2.181,2.181,0,0,0-.1,1.3,1.72,1.72,0,0,0,.361.7,1.987,1.987,0,0,0,2.625.548,2.114,2.114,0,0,0,.7-2.932c-.306-.491-.636-.968-.963-1.445q-.981-1.429-2.034-2.81a2.238,2.238,0,0,0-1.195-.919,2.045,2.045,0,0,0-1.542.2,2.017,2.017,0,0,0-.919,1.2,1.934,1.934,0,0,0,.2,1.541Z"></path><path class="c" d="M162.072,145.489a11.6,11.6,0,0,1,1.516-3.5,12.99,12.99,0,0,1,2.268-2.63c.24-.224.485-.439.737-.649.315-.263.129-.1.058-.047.123-.088.246-.175.373-.257.214-.139.438-.251.657-.379.308-.182.035-.027-.044,0,.144-.059.291-.111.439-.157.25-.079.5-.126.756-.186.095-.022.386-.048-.052,0,.135-.014.27-.03.405-.04a9.585,9.585,0,0,1,1.137,0c.053,0,.393.062.09.006a5.592,5.592,0,0,1,.569.134,3.366,3.366,0,0,1,.346.119c-.367-.156-.014,0,.059.062.249.21-.4-.3.117.085.046.035.24.289.066.044a2.557,2.557,0,0,1,.192.328c-.156-.31,0,.048.03.141s.1.5.05.129a4.782,4.782,0,0,1,.029.586c0,.265-.02.528-.044.792-.038.413-.023.139-.007.052-.027.152-.055.3-.09.452a6.81,6.81,0,0,1-.223.742c.131-.368.051-.108,0-.025-.08.144-.153.291-.24.431,0-.006-.3.445-.132.213s-.185.219-.176.208c-.169.192-.347.375-.53.553-.26.253-.531.5-.806.73-.094.081-.193.158-.286.24.388-.343.047-.044-.047.02a10.5,10.5,0,0,1-1.195.667c-.328.164-.033.017.035-.01-.127.05-.254.1-.383.145q-.433.156-.879.271c-.276.072-.554.122-.833.181-.376.079-.057.012.023,0-.171.019-.342.036-.513.047-.285.018-.572.023-.857.013-.143,0-.284-.017-.427-.026-.085-.007-.169-.015-.254-.026q.335.045.112.008c-.276-.109-.614-.132-.9-.226-.106-.035-.212-.074-.317-.114.422.161-.077-.048-.135-.079-.12-.064-.771-.5-.451-.25a5.5,5.5,0,0,1-.76-.743,2.019,2.019,0,0,0-2.828,0,2.04,2.04,0,0,0,0,2.829c2.112,2.428,5.428,2.955,8.456,2.4a11.7,11.7,0,0,0,7.252-4.624c1.85-2.522,2.2-7.083-.426-9.2-2.521-2.035-6.671-1.638-9.23.146a16.84,16.84,0,0,0-6.567,9.328C157.527,146.91,161.385,147.97,162.072,145.489Z"></path><path class="c" d="M159.324,163.313a11.587,11.587,0,0,1,1.516-3.5,13,13,0,0,1,2.268-2.63q.36-.336.737-.65c.315-.263.13-.1.058-.047.123-.088.246-.175.373-.257.214-.138.439-.25.657-.379.308-.182.035-.027-.044,0,.144-.058.291-.111.439-.157.25-.078.5-.126.756-.185.095-.022.386-.049-.052,0,.135-.015.27-.03.405-.041a9.377,9.377,0,0,1,1.137,0c.053,0,.393.061.09.006a5.333,5.333,0,0,1,.569.133,3.366,3.366,0,0,1,.346.119c-.367-.156-.014,0,.059.062.25.21-.4-.3.117.086.046.034.24.288.066.044a2.384,2.384,0,0,1,.192.328c-.156-.311,0,.047.031.141s.1.5.049.128a4.788,4.788,0,0,1,.029.587c0,.264-.02.528-.044.791-.038.414-.022.139-.007.053-.027.151-.055.3-.09.452a6.793,6.793,0,0,1-.223.741c.131-.368.051-.108,0-.024-.081.143-.154.29-.241.43,0-.006-.3.446-.132.213s-.185.219-.176.209c-.169.192-.347.375-.53.553-.26.253-.53.494-.806.729-.094.081-.193.158-.286.24.388-.343.047-.043-.047.02a10.66,10.66,0,0,1-1.195.668c-.328.164-.033.016.035-.011-.127.05-.254.1-.383.146-.289.1-.582.194-.879.271-.276.072-.554.122-.833.18-.376.079-.057.012.023,0-.171.02-.342.036-.513.047a8.451,8.451,0,0,1-.857.014c-.143,0-.284-.018-.426-.026-.085-.007-.17-.016-.255-.026q.335.045.112.007c-.276-.109-.614-.131-.9-.226q-.161-.052-.318-.114c.422.162-.077-.048-.135-.079-.12-.064-.771-.5-.451-.249a5.618,5.618,0,0,1-.76-.743,2.017,2.017,0,0,0-2.828,0,2.039,2.039,0,0,0,0,2.828c2.112,2.428,5.429,2.955,8.456,2.406a11.706,11.706,0,0,0,7.252-4.625c1.85-2.522,2.2-7.083-.426-9.2-2.521-2.035-6.671-1.638-9.229.146a16.84,16.84,0,0,0-6.568,9.328C154.779,164.734,158.637,165.794,159.324,163.313Z"></path><path class="c" d="M193.607,154.774a16.814,16.814,0,0,0-5.47-8.482c-2.565-2.138-6.187-3.123-9.346-1.632-3.376,1.593-3.415,6.239-1.858,9.14a11.286,11.286,0,0,0,6.792,5.117c3.233.9,7.06.456,9.367-2.2a2.049,2.049,0,0,0,0-2.828,2.017,2.017,0,0,0-2.828,0,7.778,7.778,0,0,1-.626.632c-.065.059-.3.2,0,0-.095.063-.188.128-.285.187s-.835.4-.43.248a6.874,6.874,0,0,1-.8.253c-.109.026-.222.044-.331.072-.509.129.262,0-.056.016-.256.01-.51.044-.767.047q-.344,0-.686-.017c-.142-.01-.286-.035-.428-.038s-.114-.012.107.015c-.085-.013-.169-.027-.254-.043a12.917,12.917,0,0,1-1.471-.382c-.12-.04-.782-.324-.359-.123-.236-.113-.474-.221-.7-.347s-.431-.248-.637-.386c-.078-.053-.153-.114-.233-.165.37.237.168.141.081.059-.508-.481-1.052-.909-1.517-1.437-.078-.089-.157-.18-.229-.273.239.31.014.006-.034-.079-.123-.216-.251-.423-.356-.648.189.405-.072-.269-.105-.4-.039-.145-.064-.293-.1-.439-.1-.409,0,.24-.04-.238-.023-.263-.044-.526-.044-.791,0-.132.009-.261.013-.393.017-.589-.06.194.021-.137a3.647,3.647,0,0,1,.128-.457c-.039.1-.157.264.037-.036.215-.332.083-.124.029-.062.071-.081.471-.361.186-.186,0,0,.467-.259.208-.134s.275-.092.267-.089c.112-.034.756-.162.446-.121a6.273,6.273,0,0,1,1.113-.03c.16.008.318.025.477.036.53.037-.388-.1.113.02.228.053.456.095.682.163.156.047.713.332.325.1.214.125.441.225.653.356.126.078.246.164.371.243.338.217-.151-.147.208.154a12.738,12.738,0,0,1,4.521,6.784C190.436,158.315,194.3,157.263,193.607,154.774Z"></path><path class="c" d="M282.326,167.707c1.1-7.134,2.379-14.241,3.668-21.343q.406-2.241.817-4.482a5.83,5.83,0,0,1,1.326-3.141,9.366,9.366,0,0,1,6.287-2.777c3.49-.2,7.043-.018,10.539-.018h5.506a34.741,34.741,0,0,1,4.989.071c4.447.656,5.461,4.783,4.688,8.653-1.14,5.7-2.407,11.387-3.748,17.045-.772,3.26-1.551,6.529-2.524,9.736a13.838,13.838,0,0,1-3.692,6.389,8.982,8.982,0,0,1-3.39,2,14.882,14.882,0,0,1-4.568.4H279.481c-3.918,0-7.876.159-11.79-.008-3.775-.162-6.676-2.939-9.328-5.33-1.19-1.073-4.429-3.276-2.267-5.04a1.99,1.99,0,0,1,1.162-.382c1.034-.1,2.13,0,3.17,0q3.138,0,6.276-.014,6.456-.016,12.914-.024c2.574,0,2.578-4,0-4q-6.338,0-12.674.024-3.137.007-6.273.013c-1.733,0-3.725-.268-5.388.343a5.955,5.955,0,0,0-3.739,6.818,6.967,6.967,0,0,0,2.328,3.549c1.43,1.363,2.906,2.678,4.443,3.92a19.775,19.775,0,0,0,4.856,3.128,14.562,14.562,0,0,0,5.679,1h32.138a32.045,32.045,0,0,0,5.541-.227,13.666,13.666,0,0,0,8.49-5.672,23.938,23.938,0,0,0,3.341-8.03c1.962-7.183,3.528-14.484,5.061-21.769a26.868,26.868,0,0,0,1-7.164,9.909,9.909,0,0,0-3.283-7.069c-2.421-2.027-5.3-2.369-8.351-2.369H300.8c-3.474,0-7.156-.376-10.485.831a11.187,11.187,0,0,0-6.67,5.624,20.913,20.913,0,0,0-1.121,4.778q-.524,2.868-1.04,5.738-1.079,5.976-2.083,11.966-.481,2.877-.931,5.761a2.064,2.064,0,0,0,1.4,2.46,2.014,2.014,0,0,0,2.46-1.4Z"></path><path class="c" d="M264.256,207.152h15.716c2.573,0,2.578-4,0-4H264.256c-2.573,0-2.578,4,0,4Z"></path><path class="c" d="M264.256,205.823a4.359,4.359,0,0,0-4.446,4.418,4.288,4.288,0,0,0,4.446,4.5,4.243,4.243,0,0,0,4.447-4.5A4.356,4.356,0,0,0,264.256,205.823Z"></path><path class="c" d="M278.434,182.731v19.377c0,2.574,4,2.578,4,0V182.731c0-2.574-4-2.578-4,0Z"></path><path class="c" d="M278.4,201.832c0,2.34-.042,4.68-.043,7.02a2,2,0,0,0,4,0c0-2.34.043-4.68.043-7.02a2,2,0,0,0-4,0Z"></path><path class="c" d="M296.612,203.152H280.9c-2.574,0-2.578,4,0,4h15.715c2.574,0,2.578-4,0-4Z"></path><path class="c" d="M296.612,205.823a4.359,4.359,0,0,1,4.446,4.418,4.288,4.288,0,0,1-4.446,4.5,4.243,4.243,0,0,1-4.446-4.5A4.355,4.355,0,0,1,296.612,205.823Z"></path><path class="c" d="M280.378,209.636a4.36,4.36,0,0,1,4.446,4.419,4.287,4.287,0,0,1-4.446,4.5,4.243,4.243,0,0,1-4.447-4.5A4.356,4.356,0,0,1,280.378,209.636Z"></path></svg>