<?xml version="1.0" encoding="utf-8"?>
<!-- Generator: Adobe Illustrator 27.5.0, SVG Export Plug-In . SVG Version: 6.00 Build 0)  -->
<svg version="1.1" id="レイヤー_1" xmlns="http://www.w3.org/2000/svg" xmlns:xlink="http://www.w3.org/1999/xlink" x="0px"
	 y="0px" viewBox="0 0 149.4 170" style="enable-background:new 0 0 149.4 170;" xml:space="preserve">
<style type="text/css">
	.st0{fill:#FFFFFF;}
	.st1{fill:#503730;}
	.st2{fill:#211715;}
</style>
<path class="st0" d="M113.6,63.8c1.2-1.1,2.9-1.6,4.5-1.3c1.6,0.2,3,1.2,3.9,2.6c0.5,0.9,0.8,2,0.8,3c0.3,4.1-0.5,8.3-2.3,12
	c-0.9,1.9-2.1,3.6-3.7,4.9c-1.2,0.9-3.2,1-4.8,1.2c-0.3,1.6-0.8,3.2-1.4,4.7c-1.3,3.5-8.6,15.7-17.7,20.1c0.1,2.2,0.4,4.4,0.8,6.6
	c0.5,2.6,0.3,5,3.9,6.3c0.2,0.1,10.5,5,10.9,5.1c0,0-4.9,25.3-35.1,25.3s-30.6-24.7-30.6-24.7c0.7-0.2,12.2-5.6,12.4-5.7
	c3.6-1.3,3.5-3.6,3.9-6.3c0.4-2,0.6-3.9,0.7-5.9c-4.8-2.1-9-5.4-12.2-9.5c-3.7-4.6-6.4-10-7.7-15.7c-2.4,0.7-4.2-0.5-5.5-1.5
	c-1.6-1.3-2.9-3-3.7-4.9c-1.9-3.7-2.7-7.9-2.3-12c0-1.1,0.3-2.1,0.8-3c0.8-1.4,2.2-2.3,3.9-2.6c1.6-0.2,3.3,0.2,4.5,1.3
	c0,0-1.9-33.1,36.3-33.1C113.3,30.7,113.6,63.8,113.6,63.8z"/>
<path class="st0" d="M147.4,168.1c-1.7-6.8-5.5-18.3-10.4-23.6c-3.6-3.9-7.9-7-12.7-9.1c-2.9-1.2-10.2-4.9-16-7.6
	c-0.2,0.5-0.4,0.8-0.4,0.8c-1.2,3.3-3.7,6.1-6.9,7.6c-2.8,1.3-5.8,2.2-8.9,2.7c-0.7,0.1-1.1,0.7-1.1,1.4c0.1,4.8,0.1,19.6,0.1,27.8
	L147.4,168.1z"/>
<path class="st0" d="M3.7,168.1c1.7-6.8,5.5-18.3,10.4-23.6c3.6-3.9,7.9-7,12.7-9.1c2.9-1.2,10.4-4.7,16.4-7.4
	c0.1,0.2,0.2,0.4,0.2,0.4c1.2,3.3,3.7,6.1,6.9,7.7c2.8,1.3,5.8,2.2,8.9,2.7c0.7,0.1,1.1,0.7,1.1,1.4c-0.1,4.9-0.1,19.8-0.1,27.9
	L3.7,168.1z"/>
<path class="st0" d="M34.9,83.2c-2.7-0.1-5,2.1-5,4.8c0,0.1,0,0.1,0,0.2c-0.2,2.6,1.7,4.9,4.3,5.1c0.2,0,0.5,0,0.7,0
	c3.1,0,5-2,5-5.1c0-2.7-2.1-4.9-4.8-5C35,83.2,34.9,83.2,34.9,83.2z"/>
<path class="st1" d="M60.2,168.1c0-6.4,0-16.9,0.1-23.5l0.8,0.2c9.5,2.3,19.4,2.4,29,0.3l1-0.2c0,6.6,0,16.9,0,23.2L60.2,168.1z"/>
<path class="st1" d="M84.9,4.2c-3.2-0.6-6.5-0.9-9.8-0.7C54.7,2.4,35.3,17.8,31.3,37.1c-1.1,5.2-1,14.3,0,18.5l1.3,6.9
	c0.1,0,0.2-0.1,0.3-0.1c1.6-0.2,3.3,0.2,4.5,1.3l2.4,2.1c-1.1-4.2-1.6-8.4,0.9-12.4c1.5-2.1,3.3-4,5.2-5.7
	c3.8-3.5,8.3-6.8,12.1-10.3l6-3.5c5.4,5.7,11.4,10.8,17.9,15.1c4.6,2.9,10.1,3.4,18.1,3c3.4,4.5,5.1,10,5.1,15.7
	c3.4-1,12-5.6,14.5-7.6c2.3-7.3,0.6-17.3-0.6-23.1C115.7,20.9,101.5,7.5,84.9,4.2z"/>
<path class="st2" d="M112.3,84.1c-0.3,0-0.6,0.1-1,0.1c-0.5,0.2-0.9,0.5-1.2,0.9c-0.2,0.5-0.3,1-0.2,1.5l0.2,0.5
	c0.2,0.3,0.4,0.5,0.7,0.7l0.5,0.2c0.3,0.1,0.7,0.1,1.1,0l0.3,0l-0.5,0.1l0.2,0c0.3,0,0.5,0,0.8-0.2c0.7-0.3,1.2-1,1.2-1.8l-0.1-0.5
	c-0.1-0.3-0.3-0.6-0.5-0.9l-0.4-0.3C113,84.2,112.7,84.1,112.3,84.1L112.3,84.1z"/>
<path class="st2" d="M116.5,64.5c1.4-0.3,2.8,0.2,3.6,1.3c1,1.4,0.8,3.8,0.7,5.5c-0.2,3.9-1.5,7.7-4,10.8c-0.8,0.8-0.8,2,0,2.8
	c0.8,0.8,2,0.8,2.8,0c3.4-4.3,5.3-9.6,5.2-15.1c0-2.6-0.4-5.3-2.3-7.2c-1.9-1.8-4.6-2.6-7.2-1.9C112.9,61.1,114,65,116.5,64.5
	L116.5,64.5z"/>
<path class="st2" d="M38.6,84.8L38.6,84.8l0.5-0.2c0,0,0,0,0,0l0.5-0.1h0c-1.1,0-2,0.9-2,2l0.1,0.5c0.1,0.3,0.3,0.6,0.5,0.9l0.4,0.3
	c0.3,0.2,0.7,0.3,1,0.3c0.1,0,0.2,0,0.3,0c0,0,0.2,0,0.3,0h0h0c0.1,0,0.2-0.1,0.2-0.1s0.2-0.1,0.2-0.1c0.9-0.6,1.2-1.8,0.7-2.7
	l-0.3-0.4c-0.2-0.2-0.5-0.4-0.9-0.5l-0.5-0.1C39.3,84.5,39,84.6,38.6,84.8L38.6,84.8z"/>
<path class="st2" d="M34.4,82.2c-2.7-3.4-4.2-7.6-4.1-11.9c0-1.7-0.1-4,1.3-5.1c1.3-1.1,3.2-1,4.6,0c0.8,0.8,2,0.8,2.8,0
	c0.8-0.8,0.8-2,0-2.8c-2.3-2-5.5-2.5-8.2-1.3c-2.9,1.3-4.1,4-4.4,7c-0.6,6.1,1.3,12.2,5.2,17C33.2,87,36.1,84.1,34.4,82.2z"/>
<path class="st2" d="M110.2,83.4c-0.1,1.6-0.4,3.2-0.9,4.7c-0.2,0.6-0.4,1.1-0.5,1.7c-0.1,0.2-0.4,1.1-0.2,0.6
	c-0.7,1.6-1.5,3.1-2.5,4.5c-2.7,4.4-6,8.3-10,11.6c-2.2,1.8-4.7,3.1-7.4,3.8c-2.5,0.6-1.4,4.4,1.1,3.9c5.7-1.3,10.5-5.4,14.2-9.7
	c3.2-3.5,5.9-7.5,8-11.8c1.4-2.9,2.1-6.1,2.3-9.3C114.3,80.8,110.3,80.8,110.2,83.4L110.2,83.4z"/>
<path class="st2" d="M37.1,82.9c1.2,7.6,4.4,14.8,9.2,20.8c5.2,6.2,12.1,10.7,20.2,11.6c1.1,0,2-0.9,2-2c0-1.1-0.9-2-2-2
	c-7.2-0.8-13.2-5.3-17.6-10.7c-4.4-5.3-6.7-12-7.9-18.7c-0.3-1.1-1.4-1.7-2.5-1.4C37.4,80.8,36.8,81.9,37.1,82.9L37.1,82.9z"/>
<path class="st2" d="M113.8,83.2c-3.1,0-5.9,2-6.7,5c-0.8,2.8,0.1,5.7,2.3,7.6c2.4,1.7,5.5,1.9,8.1,0.6c3.4-2.2,4.4-6.7,2.2-10
	c-0.3-0.5-0.7-0.9-1.1-1.3C117.3,83.9,115.6,83.2,113.8,83.2c-1.1,0-2,0.9-2,2s0.9,2,2,2c0.1,0,0.3,0,0.4,0c0.5,0-0.4-0.1,0,0
	c0.2,0,0.4,0.1,0.7,0.2l0.1,0c0.2,0.1,0.2,0.1-0.1-0.1c0.1,0,0.2,0.1,0.2,0.1c0.1,0.1,0.2,0.1,0.3,0.2c0.1,0,0.1,0.1,0.2,0.1
	c0.2,0.1,0.1,0.1-0.1-0.1c0,0,0.4,0.4,0.5,0.4l0.1,0.1c0.1,0.1,0.1,0.1,0,0l-0.1-0.1c0,0.1,0.1,0.1,0.1,0.2c0.1,0.2,0.2,0.4,0.3,0.6
	c0.2,0.2-0.2-0.5,0-0.1c0.1,0.2,0.1,0.3,0.2,0.5c0,0.1,0,0.2,0.1,0.3c0.1,0.5,0,0,0,0c0,0,0,0.6,0,0.7c0,0.1,0,0.3,0,0.4l0,0.1
	c0,0.2,0,0.2,0-0.1c-0.1,0.1-0.1,0.6-0.2,0.7s-0.1,0.2-0.1,0.3c-0.1,0.2-0.1,0,0.1-0.1c-0.1,0.2-0.2,0.4-0.3,0.6
	c0,0.1-0.1,0.1-0.1,0.2c0.2-0.4,0.2-0.2,0-0.1c-0.1,0.1-0.1,0.1-0.2,0.2c0,0-0.1,0.1-0.1,0.1c-0.2,0.1-0.1,0.1,0.1-0.1
	c-0.2,0.1-0.3,0.2-0.5,0.3c-0.1,0-0.2,0.1-0.3,0.2c0.3-0.2,0.3-0.1,0,0c-0.2,0.1-0.4,0.1-0.6,0.2c-0.2,0-0.5,0,0,0
	c-0.1,0-0.3,0-0.4,0c-0.3,0-0.6,0-0.8,0c-0.1,0-0.2,0-0.3,0c-0.5,0,0.5,0.1,0,0c-0.2,0-0.4-0.1-0.6-0.1c-0.1-0.1-0.2-0.1-0.3-0.1
	c0.3,0.1,0.3,0.1,0.2,0.1c-0.1,0-0.1-0.1-0.2-0.1c-0.2-0.1-0.3-0.2-0.5-0.3c0.3,0.1,0.3,0.2,0.1,0.1c-0.1-0.1-0.1-0.1-0.2-0.2
	c-0.1-0.1-0.2-0.2-0.2-0.2c-0.2-0.2,0.1,0.1,0.1,0.1c-0.1-0.2-0.2-0.5-0.4-0.7c-0.1-0.2,0.1,0,0.1,0.1c0-0.1-0.1-0.2-0.1-0.3
	c-0.1-0.2-0.1-0.4-0.1-0.6c-0.1-0.4,0,0.5,0,0c0-0.1,0-0.3,0-0.4c0-0.1,0.1-0.8,0-0.8c0.1,0-0.1,0.5,0,0.1c0-0.1,0.1-0.3,0.1-0.4
	c0-0.1,0.1-0.2,0.1-0.4c0.1-0.4-0.2,0.4,0,0c0.1-0.2,0.3-0.5,0.4-0.7s-0.3,0.4,0,0.1c0.1-0.1,0.2-0.2,0.4-0.4c0,0,0.2-0.2,0.2-0.2
	c-0.2,0.2-0.3,0.2-0.1,0.1c0.1,0,0.1-0.1,0.2-0.1c0.1-0.1,0.2-0.1,0.3-0.2c0.1,0,0.1-0.1,0.2-0.1c0.2-0.1,0.2-0.1-0.1,0
	c0-0.1,0.7-0.2,0.8-0.2l0.1,0c0.2,0,0.2,0-0.1,0c0.1-0.1,0.5,0,0.6,0c1.1,0,2-0.9,2-2S114.9,83.2,113.8,83.2L113.8,83.2z"/>
<path class="st2" d="M34.9,81.2c-3.1,0-5.9,2-6.7,5c-0.8,2.8,0.1,5.7,2.3,7.6c2.4,1.7,5.5,1.9,8.1,0.6c3.4-2.2,4.4-6.7,2.2-10
	c-0.3-0.5-0.7-0.9-1.1-1.3C38.3,81.9,36.6,81.3,34.9,81.2c-1.1,0-2,0.9-2,2s0.9,2,2,2c0.1,0,0.3,0,0.4,0c0.5,0-0.4-0.1,0,0
	c0.2,0,0.4,0.1,0.7,0.2l0.1,0c0.2,0.1,0.2,0.1-0.1-0.1c0.1,0,0.2,0.1,0.2,0.1c0.1,0.1,0.2,0.1,0.3,0.2c0.1,0,0.1,0.1,0.2,0.1
	c0.2,0.1,0.1,0.1-0.1-0.1c0,0,0.4,0.4,0.5,0.4l0.1,0.1c0.1,0.1,0.1,0.1,0,0l-0.1-0.1c0.1,0.1,0.1,0.1,0.1,0.2
	c0.1,0.2,0.2,0.4,0.3,0.6c0.2,0.2-0.2-0.5,0-0.1c0.1,0.2,0.1,0.3,0.2,0.5c0,0.1,0,0.2,0.1,0.3c0.1,0.5,0,0,0,0c0,0,0,0.6,0,0.7
	c0,0.1,0,0.3,0,0.4l0,0.1c0,0.2,0,0.2,0-0.1c-0.1,0.1-0.1,0.6-0.2,0.7s-0.1,0.2-0.1,0.3c-0.1,0.2-0.1,0,0.1-0.1
	c-0.1,0.2-0.2,0.4-0.3,0.6c0,0.1-0.1,0.1-0.1,0.2c0.2-0.4,0.2-0.2,0-0.1c-0.1,0.1-0.1,0.1-0.2,0.2c0,0-0.1,0.1-0.1,0.1
	c-0.2,0.1-0.1,0.1,0.1-0.1c-0.2,0.1-0.3,0.2-0.5,0.3c-0.1,0-0.2,0.1-0.3,0.2c0.3-0.2,0.3-0.1,0,0c-0.2,0.1-0.4,0.1-0.6,0.2
	c-0.2,0-0.5,0,0,0c-0.1,0-0.3,0-0.4,0c-0.3,0-0.6,0-0.8,0c-0.1,0-0.2,0-0.3,0c-0.5,0,0.5,0.1,0,0c-0.2,0-0.4-0.1-0.6-0.1
	c-0.1-0.1-0.2-0.1-0.3-0.1c0.3,0.1,0.3,0.1,0.2,0.1c-0.1,0-0.1-0.1-0.2-0.1c-0.2-0.1-0.3-0.2-0.5-0.3c0.3,0.1,0.3,0.2,0.1,0.1
	c-0.1-0.1-0.1-0.1-0.2-0.2c-0.1-0.1-0.2-0.2-0.2-0.2c-0.2-0.2,0.1,0.1,0.1,0.1c-0.1-0.2-0.2-0.5-0.4-0.7c-0.1-0.2,0.1,0,0.1,0.1
	c0-0.1-0.1-0.2-0.1-0.3c-0.1-0.2-0.1-0.4-0.1-0.6c-0.1-0.4,0,0.5,0,0c0-0.1,0-0.3,0-0.4c0-0.1,0.1-0.8,0-0.8c0.1,0-0.1,0.5,0,0.1
	c0-0.1,0.1-0.3,0.1-0.4c0-0.1,0.1-0.2,0.1-0.4c0.1-0.4-0.2,0.4,0,0c0.1-0.2,0.3-0.5,0.4-0.7s-0.3,0.4,0,0.1c0.1-0.1,0.2-0.2,0.4-0.4
	c0,0,0.2-0.2,0.2-0.2c-0.2,0.2-0.3,0.2-0.1,0.1c0.1,0,0.1-0.1,0.2-0.1c0.1-0.1,0.2-0.1,0.3-0.2c0.1,0,0.1-0.1,0.2-0.1
	c0.2-0.1,0.2-0.1-0.1,0c0-0.1,0.7-0.2,0.8-0.2l0.1,0c0.2,0,0.2,0-0.1,0c0.1-0.1,0.5,0,0.6,0c1.1,0,2-0.9,2-2S36,81.3,34.9,81.2
	L34.9,81.2z"/>
<path class="st2" d="M44.7,130.8c3.1-1.4,6.2-2.8,9.3-4.3c0.5-0.2,1.1-0.5,1.6-0.7c0.2-0.1,0.3-0.1,0.5-0.2l0.1,0c0,0,0.1,0-0.1,0
	c-0.3,0.1,0.5-0.2,0.6-0.3c2-0.9,3.5-2.7,3.9-4.8c0.6-2.8,1-5.7,1.2-8.6c0-1.1-0.9-2-2-2s-2,0.9-2,2c-0.2,2.3-0.5,4.6-0.9,6.9
	c-0.1,0.4-0.2,0.8-0.3,1.2c0,0.1-0.2,0.5-0.1,0.4c0.1-0.1-0.2,0.3-0.2,0.4c-0.2,0.3,0.1-0.1-0.1,0.2c-0.1,0.1-0.4,0.4-0.4,0.4
	c-0.4,0.2-0.7,0.4-1.1,0.6c-2.4,1-4.8,2.2-7.3,3.3c-1.6,0.7-3.1,1.4-4.7,2.1c-0.9,0.6-1.3,1.8-0.7,2.7
	C42.5,131.1,43.7,131.4,44.7,130.8L44.7,130.8z"/>
<path class="st2" d="M90.8,110.9c0.2,2.8,0.5,5.5,1,8.3c0.1,1.9,1,3.7,2.4,5c0.5,0.4,1,0.7,1.5,1c0.3,0.2,0.7,0.3,1,0.4
	c0.6,0.2-0.2-0.1-0.1-0.1c0.4,0.2,0.8,0.4,1.1,0.5c1.4,0.7,2.9,1.4,4.3,2c1.6,0.7,3.1,1.5,4.7,2.2c1,0.5,2.2,0.2,2.7-0.7
	c0.5-1,0.2-2.2-0.7-2.7c-3.3-1.5-6.5-3.1-9.8-4.6c-0.6-0.3-1.3-0.6-1.9-0.9c-0.2-0.1-0.3-0.2-0.5-0.4c-0.2-0.2-0.2-0.2-0.1,0
	c-0.1-0.1-0.1-0.2-0.2-0.3c-0.1-0.1-0.1-0.2-0.2-0.3c0.1,0.2,0.1,0.2,0,0c-0.1-0.2-0.2-0.5-0.2-0.7c-0.6-2.8-1-5.7-1.1-8.7
	c0-1.1-0.9-2-2-2C91.7,108.9,90.8,109.8,90.8,110.9L90.8,110.9z"/>
<path class="st2" d="M101.2,126.1c0.5-0.3-1.3,0.3-0.8,0.3c-0.7,0.1-0.4-0.1-0.3,0c0.2,0.1,0.3,0.1,0.5,0.1c0.2,0.1,0.5,0.2,0.7,0.3
	c0.2,0.1,0.9,0.4,0.6,0.2c1.5,0.7,3.1,1.4,4.6,2.1c3.8,1.8,7.6,3.7,11.3,5.5s7.7,3.3,11.2,5.7c2.5,1.7,4.7,3.6,6.7,5.8
	c1.5,1.8,2.8,3.8,3.8,5.9c2.6,5.3,4.6,10.9,6,16.6c0.6,2.5,4.5,1.4,3.9-1.1c-1.3-5.5-3.2-10.8-5.6-15.9c-1.1-2.6-2.6-5-4.3-7.2
	c-1.9-2.3-4.1-4.4-6.5-6.2c-2.6-2-5.4-3.6-8.4-4.9c0.5,0.2-0.3-0.1-0.4-0.2c-0.3-0.2-0.7-0.3-1-0.5c-0.8-0.4-1.6-0.8-2.4-1.1
	c-4-1.9-8-3.9-12-5.8c-1.9-0.9-3.8-1.8-5.8-2.6c-1.2-0.5-2.5-1.1-3.8-0.5C96.9,123.8,98.9,127.2,101.2,126.1L101.2,126.1z"/>
<path class="st2" d="M93,168.1c0-6.3,0-12.6,0-19c0-2.6,0-5.1-0.1-7.7c0-0.3,0.1-1.4-0.2-0.9c-0.2,0.5-0.1,0.2,0.3,0.2
	c0.3,0,0.6-0.1,0.9-0.2c0.6-0.1,1.2-0.3,1.7-0.4c2-0.5,3.9-1.1,5.7-2c3.9-1.8,7-5.1,8.4-9.1c0.8-2.5-3.1-3.5-3.9-1.1
	c-1.1,3.4-4.2,5.9-7.5,7.1c-2,0.7-4,1.3-6,1.7c-2,0.4-3.4,1.5-3.5,3.7c-0.1,5.7,0.1,11.4,0.1,17c0,3.5,0,7.1,0,10.6
	C89,170.6,93,170.6,93,168.1L93,168.1z"/>
<path class="st2" d="M52.3,123.2c-1.1-0.4-2.3-0.3-3.4,0.2c-1.7,0.6-3.3,1.3-4.9,2c-4.1,1.8-8.1,3.6-12.2,5.5
	c-4.4,2-7.8,3.2-11.9,5.9c-4.9,3.2-9,7.6-11.7,12.8c-2.8,5.7-5,11.7-6.5,17.9c-0.6,2.5,3.2,3.6,3.9,1.1c1.2-5.1,2.9-10,5.1-14.8
	c1-2.4,2.3-4.6,3.8-6.7c1.7-2.1,3.7-4,5.9-5.6c3.6-2.7,7.6-4.4,11.7-6.2c3.8-1.7,7.6-3.5,11.4-5.1c1.8-0.8,3.5-1.6,5.3-2.3
	c0.6-0.3,1.3-0.5,2-0.7c0.2-0.1,0.4-0.1,0.6-0.2c0.1,0,0.2,0,0.2,0c-0.4,0.1-0.9,0-1.2-0.2C52.6,127.7,54.7,124.3,52.3,123.2
	L52.3,123.2z"/>
<path class="st2" d="M41.5,128.9c1.2,3.6,3.8,6.6,7.1,8.5c1.8,1,3.7,1.8,5.7,2.3c0.9,0.3,1.9,0.5,2.8,0.7c0.5,0.1,1,0.2,1.5,0.3
	c0-0.1-0.3-0.5-0.3-0.4c0,0,0,0.3,0,0.3c-0.1,1.1-0.1,2.1,0,3.2c0,1.4,0,2.8,0,4.2c0,3.3,0,6.6,0,9.9c0,3.4,0,6.9,0,10.3
	c0,2.6,4,2.6,4,0c0-6.4,0-12.8,0-19.2c0-2.6,0-5.2,0.1-7.7c0-1.6-0.2-3.2-1.8-4.1c-0.9-0.4-1.8-0.6-2.8-0.7
	c-1.1-0.2-2.2-0.5-3.2-0.8c-3.9-1.2-7.8-3.6-9.2-7.7C44.5,125.4,40.7,126.4,41.5,128.9L41.5,128.9z"/>
<path class="st2" d="M60.5,146.7c9.9,2.4,20.2,2.6,30.1,0.3c2.5-0.5,1.5-4.4-1.1-3.9c-9.2,2.1-18.8,1.9-27.9-0.3
	C59.1,142.2,58,146.1,60.5,146.7z"/>
<path class="st2" d="M56.6,36c-5.1,4.7-10.9,8.6-15.6,13.8c-2.3,2.5-3.8,5.6-4.1,9c-0.3,3.3,0.6,6.6,1.5,9.7
	c0.7,2.5,4.6,1.4,3.9-1.1c-0.8-2.8-1.7-5.7-1.4-8.7c0.3-3,2-5.4,4.1-7.5c4.5-4.5,9.7-8.2,14.3-12.5C61.4,37.1,58.5,34.3,56.6,36
	L56.6,36z"/>
<path class="st2" d="M61.1,33.7c5.5,6.1,11.7,11.5,18.5,16.2c2.6,1.8,5.5,3.1,8.5,3.7c3.6,0.6,7.2,0.8,10.9,0.6c2.6-0.1,2.6-4.1,0-4
	c-3.3,0.2-6.7,0.1-10-0.5c-2.8-0.6-5.5-1.8-7.8-3.5c-6.3-4.5-12.1-9.6-17.3-15.3C62.2,29,59.3,31.8,61.1,33.7L61.1,33.7z"/>
<path class="st2" d="M117.9,59.4c-0.2,0.6-0.4,1.2-0.7,1.8l0.2-0.5l0,0c-0.1,0.2-0.2,0.5-0.2,0.7c-0.1,0.8,0.3,1.6,1,2l0.5,0.2
	c0.3,0.1,0.7,0.1,1.1,0l0.5-0.2c0.3-0.2,0.5-0.4,0.7-0.7c0.3-0.8,0.6-1.5,0.9-2.3c0.1-0.3,0.1-0.5,0-0.8c0-0.3-0.1-0.5-0.2-0.7
	c-0.3-0.4-0.7-0.8-1.2-0.9l-0.5-0.1c-0.4,0-0.7,0.1-1,0.3l-0.4,0.3C118.2,58.7,118,59,117.9,59.4L117.9,59.4z"/>
<path class="st2" d="M33.2,55c-0.9-4.8-1-9.6-0.4-14.4c0.5-4.8,2-9.4,4.4-13.6c5-8.8,12.9-15.5,22.3-19.1c4.8-1.8,9.8-2.6,14.9-2.5
	c2.6,0.1,5.1-0.1,7.7,0.3c2.5,0.3,4.9,0.9,7.3,1.7c9.6,3.2,17.7,9.7,23,18.3c2.7,4.7,4.5,9.9,5.3,15.3c1.1,6,1.8,12.6,0,18.6
	l0.5-0.9c0.4-0.3-0.3,0.2-0.3,0.2c-0.2,0.1-0.4,0.3-0.6,0.4c-0.5,0.3-1,0.7-1.6,1c-1.3,0.8-2.7,1.5-4,2.3c-2.3,1.3-4.6,2.4-7.1,3.2
	l2.5,1.9c0-6.4-2.1-12.6-6.1-17.6c-3.8-4.9-9.4-8.9-11.8-14.8c-0.3-1-1.4-1.7-2.5-1.4c-1.1,0.3-1.7,1.4-1.4,2.5
	c2.4,6,7.4,10.3,11.5,15c4,4.5,6.2,10.3,6.2,16.4c0,1.1,0.9,2,2,2c0.2,0,0.3,0,0.5-0.1c2.3-0.8,4.6-1.8,6.7-2.9
	c2.4-1.2,4.7-2.5,6.9-3.9c1.2-0.6,2-1.6,2.4-2.8c0.4-1.7,0.7-3.4,0.9-5.1c0.2-3.4,0.1-6.9-0.4-10.3c-0.8-6-2-12-4.6-17.5
	c-2.7-5.5-6.6-10.5-11.3-14.4C101.5,8.5,96,5.4,90,3.5c-6-1.9-12.4-2.2-18.6-2C58.8,2.2,47,8.1,38.9,17.7
	c-4.1,4.7-7.1,10.2-8.8,16.2c-1.5,6-2,12.2-1.2,18.4c0.1,1.3,0.3,2.6,0.6,3.9C30,58.6,33.8,57.5,33.2,55L33.2,55z"/>
<path class="st2" d="M71.9,68.8c2.5,0,4.9-0.1,7.4-0.1c1.1,0,2-0.9,2-2s-0.9-2-2-2c-2.5,0-4.9,0.1-7.4,0.1c-1.1,0-2,0.9-2,2
	S70.8,68.8,71.9,68.8z"/>
<path class="st2" d="M41.4,65.3c1.9,0.6,3.7,1.2,5.6,1.8c1.1,0.3,2.2-0.3,2.5-1.4c0.3-1.1-0.3-2.1-1.4-2.5c-1.9-0.6-3.7-1.2-5.6-1.8
	c-1.1-0.3-2.2,0.3-2.5,1.4C39.8,63.9,40.4,65,41.4,65.3z"/>
<path class="st2" d="M50.7,71.2c-0.7-1.7-0.7-3.6,0.1-5.2c0.9-1.5,2.4-2.6,4.1-3.1c2.8-1,5.8-1,8.6,0.1c2.6,1.1,4.9,3.7,4.2,6.7
	c-0.8,3.2-3.4,5.5-6.7,5.8c-2,0.3-4,0.2-6-0.4C53.1,74.4,51.6,73,50.7,71.2c-0.3-1-1.4-1.7-2.5-1.4c-1.1,0.3-1.7,1.4-1.4,2.5
	c2.1,5.1,7.2,7.6,12.6,7.3c2.4,0,4.7-0.6,6.8-1.7c2.1-1.3,3.8-3.3,4.7-5.6c1.1-2.3,1.1-5,0-7.4c-1-2-2.5-3.6-4.3-4.7
	c-3.7-2.1-8.1-2.6-12.1-1.3c-2.8,0.7-5.2,2.3-6.9,4.6c-1.7,2.6-2,5.9-0.9,8.9c0.3,1,1.4,1.7,2.5,1.4C50.4,73.3,51,72.2,50.7,71.2z"
	/>
<path class="st2" d="M104.1,72.2c1-2.6,0.8-5.5-0.4-8c-1.3-2.4-3.5-4.1-6-5c-3.9-1.5-8.3-1.5-12.2,0.2c-1.9,0.9-3.5,2.3-4.7,4
	c-1.5,2.1-1.9,4.8-1.3,7.3c0.6,2.4,1.9,4.6,3.9,6.1c1.9,1.5,4.2,2.4,6.5,2.6c2.8,0.4,5.6,0.1,8.2-0.9C100.8,77.3,103,75,104.1,72.2
	c0.3-1.1-0.3-2.2-1.4-2.5c-1.1-0.3-2.1,0.4-2.5,1.4c-1.5,3.5-5.4,4.6-8.9,4.3c-1.6,0-3.1-0.4-4.5-1.1c-1.5-0.9-2.6-2.2-3.2-3.8
	c-0.7-1.5-0.6-3.1,0.1-4.6c0.7-1.2,1.7-2.2,3-2.8c2.5-1.3,5.5-1.6,8.2-0.8c1.9,0.4,3.5,1.4,4.8,2.8c1.2,1.7,1.4,4,0.6,5.9
	c-0.3,1.1,0.3,2.2,1.4,2.5C102.7,73.9,103.8,73.3,104.1,72.2z"/>
<path class="st2" d="M68.6,94.5c2.3,1.2,4.8,1.8,7.4,1.7c2.7,0.1,5.3-0.7,7.5-2.2c0.8-0.8,0.8-2,0-2.8c-0.8-0.7-2-0.7-2.8,0
	c0.6-0.5,0.2-0.1,0,0s-0.3,0.2-0.5,0.3c-0.1,0-0.2,0.1-0.2,0.1c-0.2,0.1-0.2,0,0.1,0c-0.2,0.1-0.4,0.1-0.6,0.2
	c-0.6,0.2-1.2,0.3-1.7,0.4c0.3,0,0,0-0.1,0c-0.2,0-0.3,0-0.5,0c-0.4,0-0.8,0-1.2,0c-0.4,0-0.7,0-1.1,0c-0.2,0-0.3,0-0.5,0
	c0,0-0.7-0.1-0.2,0c-0.6-0.1-1.1-0.2-1.6-0.4c-0.2-0.1-0.5-0.2-0.7-0.2c-0.5-0.2,0.3,0.2-0.1-0.1c-0.3-0.1-0.6-0.3-0.8-0.4
	c-1-0.6-2.2-0.2-2.7,0.7S67.6,93.9,68.6,94.5L68.6,94.5z"/>
<path class="st2" d="M74.9,77.1c0.3,1.2,0.6,2.5,0.8,3.7l-0.1-0.5c0,0.2,0,0.3,0,0.5l0.1-0.5c0,0.1,0,0.2-0.1,0.2l0.2-0.5
	c0,0.1,0,0.1-0.1,0.1l0.3-0.4c0,0-0.1,0.1-0.1,0.1l0.4-0.3c-0.1,0.1-0.2,0.1-0.3,0.2l0.5-0.2c-0.2,0.1-0.3,0.1-0.5,0.1l0.5-0.1
	c-0.2,0-0.3,0-0.5,0l0.5,0.1c-0.2,0-0.3-0.1-0.5-0.1c-0.3-0.1-0.5-0.1-0.8,0c-0.3,0-0.5,0.1-0.7,0.2c-1,0.6-1.3,1.8-0.7,2.7
	c0,0,0,0,0,0c0.3,0.5,0.7,0.8,1.2,0.9c0.4,0.1,0.8,0.2,1.2,0.2c0.6,0,1.2-0.1,1.8-0.4c0.7-0.3,1.3-1,1.4-1.7c0.1-0.6,0.1-1.2,0-1.9
	c-0.2-1.2-0.5-2.4-0.8-3.5c-0.3-1.1-1.4-1.7-2.5-1.4S74.6,76.1,74.9,77.1L74.9,77.1L74.9,77.1z"/>
<path class="st2" d="M55.4,66.6c-0.6,2-0.2,6.6,3.6,7c5,0,5.3-5.6,3.6-8.2C61.2,63.3,57.2,62.4,55.4,66.6z"/>
<path class="st2" d="M95.7,66.6c0.6,2,0.2,6.6-3.6,7c-5,0-5.3-5.6-3.6-8.2C89.9,63.3,94,62.4,95.7,66.6z"/>
</svg>
